<svg width="833" height="353" viewBox="0 0 833 353" fill="none" xmlns="http://www.w3.org/2000/svg">
<g opacity="0.05">
<path d="M93.2446 328.325L34.3095 67.5234H0L60.4764 337.686H96.3276L157.595 67.5234H152.14L93.2446 328.325Z" fill="#E8C994"/>
<path d="M697.298 239.061L737.301 75.6993L774.921 239.061H697.298ZM769.836 67.5234H733.766L667.901 337.686H673.383L696.146 244.116H776.153L797.724 337.686H833L769.836 67.5234Z" fill="#E8C994"/>
<path d="M778.439 43.4121C777.316 43.9289 776.124 44.4456 775.141 45.2639C770.722 48.8816 767.986 54.1789 765.46 60.036C766.688 59.993 767.74 60.0361 768.757 59.8207C769.213 59.7346 769.739 59.3039 770.02 58.8733C771.142 57.0214 772.09 54.9972 773.317 53.1883C774.755 51.035 774.826 51.1212 776.93 52.0687C777.421 52.284 777.912 52.5423 778.404 52.7576C794.223 59.6484 807.132 50.1305 813.341 36.9088C817.866 27.2617 818.743 16.6241 817.445 5.68493C817.234 3.78997 816.848 1.93804 816.533 0C816.077 0.215337 815.796 0.30154 815.551 0.47381C811.447 2.71332 807.132 4.09149 802.607 4.39296C796.749 4.7375 791.031 6.07259 785.524 8.69971C774.334 14.0401 767.985 25.7113 768.441 40.3973C768.512 42.5076 768.862 44.6179 769.108 47.1158C771.949 44.058 774.826 42.163 777.983 40.7849C784.156 38.0716 790.014 34.454 795.206 29.5443C798.468 26.4865 801.484 23.0843 804.606 19.7681C797.591 30.5349 789.067 38.7177 778.439 43.4121Z" fill="#E8C994"/>
<path d="M409.869 223.416L409.317 230.755C408.255 242.207 406.326 252.933 403.609 262.893C398.177 271.684 391.603 279.628 383.455 286.2C370.425 296.725 354.916 302.491 338.382 303.177C320.472 303.943 301.813 299.669 286.618 289.709C283.784 287.854 281.028 285.837 278.351 283.781C276.029 281.482 273.746 279.184 271.423 276.885C271.148 276.885 270.872 276.886 270.636 276.845C270.872 276.765 271.108 276.764 271.423 276.885C264.613 268.337 259.141 254.344 268.116 245.312C271.856 240.675 264.81 237.57 261.149 236.884C251.937 232.932 269.612 225.876 266.66 222.972C264.81 221.4 262.369 224.505 261.188 225.835C260.283 226.642 259.496 229.182 258.315 229.102C255.559 224.343 268.51 216.883 272.486 216.117C285.515 208.415 264.495 207.851 256.307 228.456C255.874 229.585 255.716 231.037 254.26 231.682C253.355 220.432 267.093 209.706 276.422 206.036C278.154 205.351 281.54 204.544 279.768 202.004C279.453 201.48 278.587 201.076 279.178 200.23C282.406 199.383 313.779 205.391 305.277 197.004C292.995 186.398 286.854 199.746 283.902 195.552C283.823 193.294 289.688 195.189 290.003 192.608C289.609 191.883 289.058 191.237 288.35 190.794C287.72 190.35 286.933 190.108 286.185 189.987C285.358 189.866 284.492 189.866 283.665 189.987C282.76 190.108 281.855 190.31 280.989 190.592C280.083 190.874 279.178 191.237 278.273 191.681C277.406 192.084 276.54 192.528 275.714 193.012C275.084 193.375 274.494 193.778 273.864 194.181C273.313 194.544 272.801 194.907 272.25 195.27C271.856 195.512 271.462 195.713 271.108 195.996C270.911 196.157 270.754 196.278 270.557 196.48C269.966 197.044 269.376 197.609 268.785 198.173C268.195 198.738 267.605 199.342 266.975 199.826C266.503 200.189 265.951 200.593 265.361 200.714C264.967 200.794 264.613 200.673 264.377 200.351C263.983 197.931 257.842 201.802 257.016 202.286C256.228 202.73 247.804 207.891 247.647 206.399C247.607 206.157 247.686 205.956 247.804 205.714C249.261 202.488 252.646 200.351 254.536 197.367C255.126 196.439 255.953 195.068 255.48 193.899C255.008 192.729 252.843 191.842 251.701 192.084C249.379 192.568 247.135 193.334 245.009 194.342C243.002 195.31 241.112 196.479 239.341 197.891C237.609 199.262 236.074 200.835 234.696 202.528C233.279 204.262 232.098 206.117 230.996 208.093C229.893 210.109 228.988 212.206 228.24 214.343C227.453 216.561 226.823 218.819 226.311 221.158C225.799 223.456 225.445 225.876 225.209 228.295C224.973 230.715 224.855 233.134 224.855 235.553C224.855 237.973 224.973 240.352 225.209 242.771C225.445 245.11 225.76 247.449 226.232 249.747C226.665 251.925 227.177 254.143 227.846 256.28C228.949 259.707 229.972 263.175 231.311 266.522C232.491 269.426 233.869 272.208 235.365 274.95C236.861 277.652 238.554 280.313 240.325 282.853C242.096 285.394 244.065 287.854 246.072 290.192C248.119 292.572 250.284 294.789 252.528 296.926C254.772 299.064 257.134 301.12 259.574 303.056C262.015 304.991 264.495 306.806 267.093 308.54C269.652 310.274 272.289 311.846 275.005 313.338C276.265 314.064 277.564 314.75 278.863 315.395C299.214 325.718 322.164 328.823 344.287 323.419C360.978 319.347 376.527 310.596 388.533 298.056C388.179 298.822 387.628 299.951 386.801 301.443C385.266 303.862 383.612 306.282 381.92 308.58C379.361 311.967 376.645 315.193 373.732 318.258C365.268 326.444 352.829 334.589 335.312 337.936C333.737 338.218 332.281 338.541 330.982 338.783C321.81 339.589 312.48 339.146 303.427 337.775C302.718 337.654 302.009 337.533 301.34 337.412C297.561 336.726 293.9 335.597 290.279 334.428C289.334 334.146 288.428 333.823 287.484 333.5C283.154 331.968 278.902 330.194 274.769 328.178C258.118 319.951 243.395 307.693 232.688 292.209C227.768 285.112 222.729 277.732 219.462 269.627C215.289 259.506 212.888 248.618 212.179 237.691C211.274 223.577 213.675 206.843 224.736 197.044C226.429 195.552 228.201 194.302 230.248 193.334C233.436 190.511 253.866 182.971 246.308 177.971C241.427 176.076 236.821 180.31 232.924 182.729C232.491 183.011 231.98 183.576 231.468 183.173C230.366 181.116 233.239 178.818 234.775 177.81C236.9 176.277 239.301 175.148 241.781 174.422C244.222 173.696 246.741 173.253 249.3 172.85C250.481 172.648 251.662 172.446 252.843 172.406C253.433 172.406 254.024 172.366 254.575 172.487C255.165 172.608 255.756 172.769 256.386 172.85C257.488 173.011 258.59 173.132 259.692 173.132C261.857 173.172 264.141 172.971 266.148 172.083C266.581 171.882 267.014 171.68 267.368 171.438C271.187 168.495 266.935 165.188 263.708 164.744C250.324 162.365 236.979 170.43 228.201 180.471C228.476 180.189 228.555 179.422 228.712 179.06C228.909 178.576 229.106 178.132 229.303 177.648C229.697 176.761 230.169 175.914 230.641 175.108C231.547 173.575 232.649 172.164 233.869 170.874C236.231 168.414 239.105 166.478 242.136 164.986C244.419 163.857 246.781 162.97 249.143 162.164C251.465 161.357 253.788 160.51 256.189 159.986C257.724 159.664 259.22 159.462 260.795 159.381C261.936 159.341 263.038 159.341 264.18 159.422C266.424 159.583 268.589 160.027 270.793 160.551C275.123 161.599 279.414 163.132 283.783 163.978C285.24 164.261 286.697 164.462 288.153 164.543C291.775 164.543 291.893 161.317 290.869 158.535C290.712 157.728 290.121 156.76 290.869 156.156C291.735 155.43 292.601 156.236 293.27 156.76C302.915 162.688 308.229 176.721 321.062 175.753C327.478 173.011 319.015 164.906 316.417 161.922C315.354 160.752 314.212 159.704 312.835 158.978C311.536 158.252 310.079 157.768 308.662 157.365C306.772 156.841 304.844 156.518 302.915 156.115C302.836 156.115 302.718 156.075 302.639 156.034C302.285 155.833 302.049 155.107 301.891 154.744C301.694 154.26 301.458 153.575 301.734 153.051C302.009 152.526 302.718 152.688 303.19 152.809C304.883 153.252 306.379 154.301 308.072 154.784C308.347 154.865 308.623 154.946 308.859 154.905C311.811 155.833 313.583 153.534 311.614 150.994C304.647 139.986 288.744 142.687 278.273 146.196C277.603 146.478 276.895 146.76 276.225 147.042C274.572 147.647 272.958 148.212 271.305 148.776C264.574 148.817 272.683 143.131 262.408 138.857C266.699 137.324 271.266 131.558 264.928 129.582C260.991 128.614 257.055 127.808 253 127.687C251.898 127.646 251.386 127.526 251.741 126.155C252.292 112.767 228.083 124.945 222.729 128.614C222.572 128.574 222.453 128.614 222.375 128.776C220.367 129.945 218.438 131.195 216.588 132.526C234.814 94.6211 267.093 73.0074 305.67 73.0074C367.355 73.0074 410.301 128.977 410.301 210.19C410.301 214.787 410.144 219.263 409.908 223.658L409.869 223.416ZM389.359 297.33L389.32 297.289C389.32 297.289 389.478 297.128 389.596 297.007C389.517 297.128 389.438 297.209 389.359 297.33ZM611.179 255.957C592.914 224.061 555.715 206.44 517.492 205.149V76.0721H483.284V208.496C478.009 209.706 472.852 211.278 467.813 213.214C459.389 215.916 451.949 218.819 445.376 221.803C445.651 217.892 445.848 213.94 445.848 209.948C445.848 206.762 445.73 203.657 445.572 200.512L445.061 193.737C437.817 118.856 380.463 67.5234 305.67 67.5234C225.642 67.5234 165.099 126.316 165.099 209.907C165.099 293.499 225.602 352.695 305.67 352.695C373.299 352.695 426.717 310.435 441.636 246.885C442.148 246.522 442.62 246.118 443.092 245.715C453.76 237.166 467.774 231.198 483.284 227.973V351.888H517.492V225.311C554.18 226.964 591.851 242.57 611.179 274.305V351.888H645.387V76.0721H611.179V255.957Z" fill="#E8C994"/>
<path d="M286.231 112.839C287.206 112.652 288.224 112.513 289.115 112.14C289.454 112 289.75 111.767 290.09 111.534C290.386 111.301 290.725 111.068 291.022 110.835C291.277 110.601 291.531 110.415 291.743 110.135C291.913 109.949 292.082 109.716 292.252 109.483C292.379 109.296 292.506 109.063 292.549 108.83C292.591 108.644 292.676 108.457 292.676 108.224C292.676 108.038 292.676 107.851 292.633 107.665C292.591 107.478 292.506 107.339 292.379 107.152C292.252 106.966 292.125 106.826 291.998 106.686C291.828 106.546 291.658 106.406 291.446 106.266C291.234 106.127 290.98 105.987 290.725 105.94C290.429 105.847 290.174 105.707 289.878 105.614C289.581 105.521 289.242 105.428 288.902 105.381C288.563 105.334 288.182 105.241 287.8 105.195C287.419 105.148 286.994 105.101 286.57 105.101C286.146 105.101 285.68 105.055 285.256 105.055C284.79 105.055 284.323 105.055 283.857 105.101C283.348 105.101 282.882 105.148 282.373 105.195C281.864 105.241 281.356 105.288 280.804 105.381C280.253 105.474 279.744 105.567 279.193 105.661C278.642 105.754 278.091 105.894 277.54 106.033C276.946 106.173 276.395 106.313 275.844 106.5C275.25 106.686 274.656 106.826 274.105 107.059C273.512 107.245 272.918 107.479 272.325 107.712C271.731 107.945 271.095 108.178 270.502 108.457C269.866 108.737 269.272 109.017 268.678 109.296C268.042 109.623 267.449 109.949 266.855 110.275C266.219 110.601 265.626 110.974 265.032 111.347C264.438 111.72 263.845 112.093 263.251 112.513C262.658 112.932 262.064 113.352 261.513 113.818C260.92 114.284 260.368 114.75 259.817 115.216C259.223 115.729 258.672 116.241 258.163 116.754C257.612 117.313 257.061 117.826 256.552 118.432C256.086 118.945 255.62 119.504 255.153 120.064C261.895 116.102 268.763 112.233 276.776 113.165C277.794 113.258 278.854 113.352 279.871 113.352C280.889 113.352 281.949 113.351 283.009 113.258C284.069 113.165 285.087 113.025 286.147 112.839H286.231Z" fill="#E8C994"/>
<path d="M296.808 128.411C292.665 128.961 288.787 130.355 285.172 132.042C298.307 127.788 309.987 136.699 322.151 134.829C326.559 127.421 302.891 126.578 296.808 128.411Z" fill="#E8C994"/>
</g>
</svg>
