<svg width="38" height="38" viewBox="0 0 38 38" fill="none" xmlns="http://www.w3.org/2000/svg">
<g clip-path="url(#clip0_141_442)">
<path d="M34.5455 12.0896C35.4617 12.0896 36.3403 12.4536 36.9882 13.1015C37.636 13.7494 38 14.6281 38 15.5444V22.4538C38 23.37 37.636 24.2488 36.9882 24.8966C36.3403 25.5445 35.4617 25.9085 34.5455 25.9085H32.7111C32.29 29.248 30.6647 32.319 28.1403 34.5453C25.6159 36.7715 22.3658 37.9999 19 38V34.5453C21.7486 34.5453 24.3846 33.4534 26.3282 31.5097C28.2718 29.566 29.3636 26.9299 29.3636 24.1811V13.817C29.3636 11.0683 28.2718 8.4321 26.3282 6.48844C24.3846 4.54479 21.7486 3.45286 19 3.45286C16.2514 3.45286 13.6154 4.54479 11.6718 6.48844C9.72824 8.4321 8.63636 11.0683 8.63636 13.817V25.9085H3.45455C2.53834 25.9085 1.65967 25.5445 1.01181 24.8966C0.36396 24.2488 0 23.37 0 22.4538V15.5444C0 14.6281 0.36396 13.7494 1.01181 13.1015C1.65967 12.4536 2.53834 12.0896 3.45455 12.0896H5.28891C5.71042 8.75048 7.33587 5.67989 9.86026 3.45402C12.3847 1.22816 15.6345 0 19 0C22.3655 0 25.6153 1.22816 28.1397 3.45402C30.6641 5.67989 32.2896 8.75048 32.7111 12.0896H34.5455ZM11.6764 25.5371L13.5073 22.6075C15.1535 23.6388 17.0575 24.1843 19 24.1811C20.9425 24.1843 22.8465 23.6388 24.4927 22.6075L26.3236 25.5371C24.1287 26.9123 21.5901 27.6398 19 27.6359C16.4099 27.6398 13.8713 26.9123 11.6764 25.5371Z" fill="#E8C994"/>
</g>
<defs>
<clipPath id="clip0_141_442">
<rect width="38" height="38" fill="white"/>
</clipPath>
</defs>
</svg>
