<svg width="36" height="36" viewBox="0 0 36 36" fill="none" xmlns="http://www.w3.org/2000/svg">
<g clip-path="url(#clip0_141_414)">
<path d="M30.3158 32.2105H5.68421L0 37.8947V5.68421C0 2.55789 2.55789 0 5.68421 0H30.3158C33.4421 0 36 2.55789 36 5.68421V26.5263C36 29.6526 33.4421 32.2105 30.3158 32.2105Z" fill="#E8C994"/>
<path d="M17.9988 18.9498C19.5685 18.9498 20.8409 17.6774 20.8409 16.1077C20.8409 14.5381 19.5685 13.2656 17.9988 13.2656C16.4292 13.2656 15.1567 14.5381 15.1567 16.1077C15.1567 17.6774 16.4292 18.9498 17.9988 18.9498Z" fill="#164247"/>
<path d="M27.473 18.9498C29.0426 18.9498 30.3151 17.6774 30.3151 16.1077C30.3151 14.5381 29.0426 13.2656 27.473 13.2656C25.9033 13.2656 24.6309 14.5381 24.6309 16.1077C24.6309 17.6774 25.9033 18.9498 27.473 18.9498Z" fill="#164247"/>
<path d="M8.52619 18.9498C10.0958 18.9498 11.3683 17.6774 11.3683 16.1077C11.3683 14.5381 10.0958 13.2656 8.52619 13.2656C6.95654 13.2656 5.68408 14.5381 5.68408 16.1077C5.68408 17.6774 6.95654 18.9498 8.52619 18.9498Z" fill="#164247"/>
</g>
<defs>
<clipPath id="clip0_141_414">
<rect width="36" height="36" fill="white"/>
</clipPath>
</defs>
</svg>
