<svg width="36" height="36" viewBox="0 0 36 36" fill="none" xmlns="http://www.w3.org/2000/svg">
<path d="M28.0124 34.3255C27.7202 34.3255 27.4324 34.2543 27.1739 34.1181L17.9999 29.2958L8.82594 34.1181C8.52872 34.2745 8.19366 34.3446 7.85866 34.3205C7.52366 34.2964 7.20209 34.1791 6.93031 33.9818C6.65854 33.7845 6.4474 33.5151 6.32079 33.2041C6.19417 32.8931 6.15713 32.5528 6.21385 32.2219L7.96637 22.0079L0.543204 14.7745C0.302764 14.5401 0.132727 14.2431 0.052329 13.9171C-0.0280693 13.5912 -0.0156208 13.2492 0.0882665 12.9299C0.192154 12.6107 0.383334 12.3268 0.64018 12.1105C0.897026 11.8943 1.20929 11.7541 1.54164 11.7061L11.7984 10.2158L16.3863 0.9227C16.5516 0.641733 16.7875 0.408804 17.0705 0.246968C17.3535 0.0851318 17.6739 0 18 0C18.3261 0 18.6465 0.0851318 18.9295 0.246968C19.2125 0.408804 19.4484 0.641733 19.6137 0.9227L24.2016 10.2158L34.4584 11.7061C34.7907 11.7541 35.103 11.8943 35.3598 12.1105C35.6167 12.3268 35.8078 12.6107 35.9117 12.9299C36.0156 13.2492 36.0281 13.5912 35.9477 13.9171C35.8673 14.2431 35.6972 14.5401 35.4568 14.7745L28.0336 22.0079L29.7862 32.2219C29.8304 32.4801 29.8177 32.7449 29.7489 32.9977C29.6802 33.2506 29.5571 33.4853 29.3882 33.6857C29.2193 33.886 29.0087 34.0471 28.7711 34.1576C28.5334 34.2681 28.2746 34.3254 28.0125 34.3256L28.0124 34.3255Z" fill="#E8C994"/>
</svg>
