<svg width="418" height="631" viewBox="0 0 418 631" fill="none" xmlns="http://www.w3.org/2000/svg">
<g opacity="0.04">
<path fill-rule="evenodd" clip-rule="evenodd" d="M233.441 463.168C233.963 462.989 234.486 462.989 235.182 463.257C234.573 463.257 233.963 463.257 233.441 463.168ZM495.964 508.405L496.051 508.494C496.138 508.36 496.225 508.248 496.312 508.137C496.399 508.025 496.486 507.914 496.573 507.78L495.964 508.405Z" fill="#164247"/>
<path fill-rule="evenodd" clip-rule="evenodd" d="M619.955 341.375C620.565 332.721 621 323.976 621 315.143C621 308.094 620.739 301.224 620.39 294.264L619.258 279.274C603.237 113.583 476.372 0 310.935 0C133.917 0 0 130.09 0 315.054C0 500.017 133.83 631 310.935 631C460.525 631 578.683 537.492 611.683 396.873L619.955 341.375ZM541.416 344.944L540.197 361.183C537.846 386.523 533.579 410.257 527.571 432.296C515.555 451.747 501.014 469.324 482.99 483.868C454.169 507.156 419.863 519.915 383.293 521.432C343.675 523.127 302.402 513.669 268.792 491.63C262.523 487.526 256.428 483.065 250.507 478.514C245.37 473.428 240.32 468.342 235.182 463.257C234.573 463.257 233.963 463.257 233.441 463.168C233.963 462.989 234.486 462.989 235.182 463.257C220.119 444.341 208.016 413.38 227.868 393.393C236.14 383.133 220.554 376.262 212.456 374.745C192.081 366.001 231.177 350.387 224.647 343.963C220.554 340.483 215.156 347.353 212.543 350.298C210.541 352.082 208.799 357.704 206.187 357.525C200.092 346.997 228.739 330.49 237.533 328.795C266.354 311.753 219.858 310.503 201.746 356.097C200.789 358.596 200.44 361.808 197.219 363.235C195.216 338.342 225.604 314.608 246.24 306.488C250.071 304.971 257.56 303.187 253.642 297.566C252.945 296.406 251.029 295.514 252.335 293.64C259.475 291.766 328.872 305.061 310.064 286.502C282.898 263.035 269.315 292.569 262.784 283.29C262.61 278.293 275.584 282.487 276.28 276.776C275.41 275.17 274.191 273.743 272.623 272.761C271.23 271.78 269.489 271.244 267.835 270.977C266.006 270.709 264.09 270.709 262.262 270.977C260.259 271.244 258.257 271.69 256.341 272.315C254.338 272.94 252.336 273.743 250.333 274.724C248.417 275.616 246.502 276.598 244.673 277.669C243.28 278.472 241.974 279.364 240.581 280.256C239.362 281.059 238.23 281.862 237.011 282.665C236.14 283.2 235.269 283.646 234.486 284.271C234.05 284.628 233.702 284.896 233.267 285.342L229.348 289.089C228.042 290.338 226.736 291.677 225.343 292.748C224.298 293.551 223.079 294.443 221.773 294.711C220.902 294.889 220.119 294.621 219.596 293.908C218.725 288.554 205.142 297.119 203.314 298.19C201.572 299.172 182.939 310.593 182.59 307.291C182.503 306.756 182.678 306.31 182.939 305.774C186.161 298.636 193.649 293.907 197.828 287.305C199.134 285.253 200.963 282.219 199.918 279.631C198.873 277.044 194.084 275.081 191.559 275.616C186.422 276.687 181.459 278.382 176.757 280.613C172.316 282.754 168.137 285.342 164.218 288.465C160.387 291.498 156.991 294.978 153.944 298.726C150.809 302.562 148.197 306.667 145.759 311.039C143.321 315.5 141.318 320.14 139.664 324.869C137.922 329.776 136.529 334.773 135.397 339.948C134.265 345.034 133.482 350.387 132.96 355.74C132.437 361.094 132.176 366.447 132.176 371.801C132.176 377.154 132.437 382.419 132.96 387.772C133.482 392.947 134.178 398.122 135.223 403.208C136.181 408.026 137.313 412.934 138.793 417.663C141.231 425.247 143.495 432.92 146.456 440.326C149.068 446.75 152.115 452.907 155.424 458.974C158.733 464.952 162.477 470.841 166.395 476.462C170.313 482.083 174.667 487.526 179.108 492.701C183.636 497.965 188.424 502.873 193.387 507.602C198.35 512.33 203.575 516.881 208.974 521.164C214.372 525.447 219.857 529.462 225.604 533.298C231.264 537.135 237.098 540.615 243.106 543.916C245.892 545.522 248.765 547.039 251.639 548.467C296.655 571.308 347.419 578.179 396.353 566.222C433.272 557.211 467.666 537.849 494.223 510.1C493.439 511.795 492.22 514.294 490.391 517.595C486.996 522.948 483.339 528.302 479.595 533.388C473.935 540.883 467.927 548.021 461.483 554.802C442.763 572.914 415.248 590.938 376.501 598.344C373.018 598.968 369.796 599.682 366.923 600.217C346.635 602.002 325.999 601.02 305.972 597.987L305.944 597.982C304.386 597.716 302.829 597.45 301.357 597.184C292.998 595.667 284.901 593.169 276.89 590.581C274.8 589.956 272.797 589.243 270.708 588.529C261.13 585.138 251.726 581.212 242.583 576.751C205.752 558.549 173.187 531.425 149.503 497.162C138.619 481.459 127.474 465.13 120.247 447.196C111.017 424.801 105.705 400.71 104.138 376.53C102.136 345.301 107.447 308.273 131.914 286.591C135.658 283.29 139.577 280.524 144.105 278.382C151.157 272.136 196.348 255.451 179.63 244.387C168.833 240.194 158.646 249.563 150.025 254.916C149.068 255.541 147.936 256.79 146.804 255.898C144.366 251.347 150.722 246.261 154.118 244.031C158.82 240.64 164.131 238.142 169.617 236.536C175.015 234.93 180.588 233.948 186.248 233.056C188.86 232.61 191.472 232.164 194.084 232.075C195.39 232.075 196.696 231.985 197.915 232.253C199.221 232.521 200.528 232.877 201.921 233.056C204.359 233.413 206.797 233.681 209.235 233.681C214.024 233.77 219.074 233.324 223.515 231.361C224.472 230.915 225.43 230.468 226.214 229.933C234.66 223.42 225.256 216.103 218.116 215.122C188.511 209.857 158.994 227.703 139.577 249.92C140.186 249.295 140.36 247.6 140.709 246.797C141.144 245.726 141.58 244.744 142.015 243.674C142.886 241.711 143.93 239.837 144.975 238.053C146.978 234.662 149.416 231.539 152.115 228.684C157.339 223.241 163.696 218.958 170.401 215.657C175.451 213.159 180.675 211.196 185.899 209.411C191.036 207.627 196.174 205.753 201.486 204.593C204.881 203.879 208.19 203.433 211.673 203.255C214.198 203.166 216.636 203.166 219.161 203.344C224.124 203.701 228.913 204.682 233.789 205.842C243.367 208.162 252.858 211.553 262.523 213.426C265.744 214.051 268.967 214.497 272.188 214.676C280.199 214.676 280.46 207.538 278.196 201.381C277.848 199.597 276.542 197.455 278.196 196.117C280.112 194.511 282.027 196.295 283.508 197.455C304.84 210.571 316.595 241.622 344.981 239.48C359.173 233.413 340.453 215.479 334.706 208.876C332.355 206.288 329.83 203.969 326.782 202.362C323.909 200.756 320.687 199.686 317.553 198.794C313.373 197.634 309.107 196.92 304.84 196.028C304.666 196.028 304.405 195.938 304.231 195.849C303.447 195.403 302.925 193.797 302.576 192.994C302.141 191.923 301.618 190.406 302.228 189.246C302.837 188.086 304.405 188.443 305.45 188.711C309.194 189.693 312.503 192.012 316.247 193.083C316.856 193.261 317.466 193.44 317.988 193.351C324.519 195.403 328.437 190.317 324.083 184.696C308.671 160.337 273.494 166.316 250.333 174.078C248.853 174.703 247.285 175.327 245.805 175.952C242.148 177.29 238.578 178.539 234.921 179.789C220.032 179.878 237.968 167.297 215.243 157.839C224.733 154.449 234.834 141.689 220.815 137.317C212.108 135.176 203.401 133.391 194.433 133.124C191.995 133.034 190.863 132.767 191.646 129.733C192.865 100.111 139.316 127.057 127.474 135.176C127.126 135.087 126.864 135.176 126.69 135.533C122.249 138.12 117.983 140.886 113.891 143.831C154.205 59.9592 225.604 12.1345 310.935 12.1345C447.377 12.1345 542.373 135.979 542.373 315.678C542.373 325.85 542.025 335.754 541.503 345.48L541.416 344.944ZM495.964 508.405L496.051 508.494C496.138 508.36 496.225 508.248 496.312 508.137C496.399 508.025 496.486 507.914 496.573 507.78L495.964 508.405Z" fill="#164247"/>
</g>
</svg>
