<svg width="49" height="49" viewBox="0 0 49 49" fill="none" xmlns="http://www.w3.org/2000/svg">
<circle cx="24.3529" cy="24.3529" r="24.3529" fill="#164247"/>
<path d="M35.1764 24.3548C35.1764 18.4018 30.3058 13.5312 24.3528 13.5312C18.3999 13.5312 13.5293 18.4018 13.5293 24.3548C13.5293 29.7665 17.4528 34.2312 22.594 35.043V27.4665H19.8881V24.3548H22.594V21.9195C22.594 19.2136 24.2175 17.7254 26.6528 17.7254C27.8705 17.7254 29.0881 17.996 29.0881 17.996V20.7018H27.7352C26.3822 20.7018 25.9764 21.5136 25.9764 22.3254V24.3548H28.9528L28.4116 27.4665H25.8411V35.1783C31.2528 34.3665 35.1764 29.7665 35.1764 24.3548Z" fill="#E8C994"/>
</svg>
