<svg width="49" height="49" viewBox="0 0 49 49" fill="none" xmlns="http://www.w3.org/2000/svg">
<circle cx="24.6469" cy="24.3529" r="24.3529" fill="#E8C994"/>
<path d="M25.0527 14.2013C28.0291 14.2013 28.435 14.2013 29.6527 14.2013C30.735 14.2013 31.2762 14.4719 31.6821 14.6072C32.2232 14.8778 32.6291 15.0131 33.035 15.4189C33.4409 15.8248 33.7115 16.2307 33.8468 16.7719C33.9821 17.1778 34.1174 17.7189 34.2527 18.8013C34.2527 20.0189 34.2527 20.2895 34.2527 23.4013C34.2527 26.5131 34.2527 26.7836 34.2527 28.0013C34.2527 29.0836 33.9821 29.6248 33.8468 30.0307C33.5762 30.5719 33.4409 30.9778 33.035 31.3836C32.6291 31.7895 32.2232 32.0601 31.6821 32.1954C31.2762 32.3307 30.735 32.466 29.6527 32.6013C28.435 32.6013 28.1644 32.6013 25.0527 32.6013C21.9409 32.6013 21.6703 32.6013 20.4527 32.6013C19.3703 32.6013 18.8291 32.3307 18.4232 32.1954C17.8821 31.9248 17.4762 31.7895 17.0703 31.3836C16.6644 30.9778 16.3938 30.5719 16.2585 30.0307C16.1232 29.6248 15.9879 29.0836 15.8527 28.0013C15.8527 26.7836 15.8527 26.5131 15.8527 23.4013C15.8527 20.2895 15.8527 20.0189 15.8527 18.8013C15.8527 17.7189 16.1232 17.1778 16.2585 16.7719C16.5291 16.2307 16.6644 15.8248 17.0703 15.4189C17.4762 15.0131 17.8821 14.7425 18.4232 14.6072C18.8291 14.4719 19.3703 14.3366 20.4527 14.2013C21.6703 14.2013 22.0762 14.2013 25.0527 14.2013ZM25.0527 12.1719C21.9409 12.1719 21.6703 12.1719 20.4527 12.1719C19.235 12.1719 18.4232 12.4425 17.7468 12.7131C17.0703 12.9836 16.3938 13.3895 15.7174 14.066C15.0409 14.7425 14.7703 15.2836 14.3644 16.0954C14.0938 16.7719 13.9585 17.5836 13.8232 18.8013C13.8232 20.0189 13.8232 20.4248 13.8232 23.4013C13.8232 26.5131 13.8232 26.7836 13.8232 28.0013C13.8232 29.2189 14.0938 30.0307 14.3644 30.7072C14.635 31.3836 15.0409 32.0601 15.7174 32.7366C16.3938 33.4131 16.935 33.6836 17.7468 34.0895C18.4232 34.3601 19.235 34.4954 20.4527 34.6307C21.6703 34.6307 22.0762 34.6307 25.0527 34.6307C28.0291 34.6307 28.435 34.6307 29.6527 34.6307C30.8703 34.6307 31.6821 34.3601 32.3585 34.0895C33.035 33.8189 33.7115 33.4131 34.3879 32.7366C35.0644 32.0601 35.335 31.5189 35.7409 30.7072C36.0115 30.0307 36.1468 29.2189 36.2821 28.0013C36.2821 26.7836 36.2821 26.3778 36.2821 23.4013C36.2821 20.4248 36.2821 20.0189 36.2821 18.8013C36.2821 17.5836 36.0115 16.7719 35.7409 16.0954C35.4703 15.4189 35.0644 14.7425 34.3879 14.066C33.7115 13.3895 33.1703 13.1189 32.3585 12.7131C31.6821 12.4425 30.8703 12.3072 29.6527 12.1719C28.435 12.1719 28.1644 12.1719 25.0527 12.1719Z" fill="#164247"/>
<path d="M25.0527 17.5836C21.8056 17.5836 19.235 20.1542 19.235 23.4013C19.235 26.6483 21.8056 29.2189 25.0527 29.2189C28.2997 29.2189 30.8703 26.6483 30.8703 23.4013C30.8703 20.1542 28.2997 17.5836 25.0527 17.5836ZM25.0527 27.1895C23.0232 27.1895 21.2644 25.566 21.2644 23.4013C21.2644 21.3719 22.8879 19.6131 25.0527 19.6131C27.0821 19.6131 28.8409 21.2366 28.8409 23.4013C28.8409 25.4307 27.0821 27.1895 25.0527 27.1895Z" fill="#164247"/>
<path d="M31.0056 18.8013C31.7528 18.8013 32.3585 18.1956 32.3585 17.4483C32.3585 16.7011 31.7528 16.0954 31.0056 16.0954C30.2584 16.0954 29.6527 16.7011 29.6527 17.4483C29.6527 18.1956 30.2584 18.8013 31.0056 18.8013Z" fill="#164247"/>
</svg>
