<svg width="17" height="19" viewBox="0 0 17 19" fill="none" xmlns="http://www.w3.org/2000/svg">
<path d="M4.2001 13.7389C3.83685 13.9025 3.4509 14.066 3.13305 14.325C1.70275 15.4699 0.817315 17.1463 0 19C0.397306 18.9864 0.737856 19 1.06705 18.9319C1.21462 18.9046 1.38488 18.7683 1.47569 18.632C1.83894 18.0459 2.14544 17.4053 2.54275 16.8329C3.00816 16.1514 3.0309 16.1787 3.71199 16.4785C3.87092 16.5467 4.02982 16.6284 4.18874 16.6966C9.30831 18.8773 13.4857 15.8651 15.495 11.6808C16.9593 8.6277 17.2431 5.26113 16.8231 1.79915C16.755 1.19944 16.6301 0.613343 16.5279 0C16.3803 0.0681492 16.2896 0.0954305 16.2101 0.14995C14.882 0.858701 13.4857 1.29486 12.0214 1.39027C10.1257 1.49931 8.27528 1.92183 6.49308 2.75325C2.87192 4.44335 0.817287 8.13702 0.964858 12.7848C0.987561 13.4527 1.10108 14.1205 1.18054 14.911C2.10002 13.9433 3.03088 13.3436 4.05253 12.9075C6.05041 12.0488 7.94609 10.9039 9.62613 9.35009C10.6818 8.38237 11.6581 7.30563 12.6683 6.25613C10.398 9.66359 7.63964 12.2532 4.2001 13.7389Z" fill="#E8C994"/>
</svg>
