<svg width="236" height="12" viewBox="0 0 236 12" fill="none" xmlns="http://www.w3.org/2000/svg">
<path d="M0 11.1603V0H4.18665C6.28869 0 7.45263 1.54384 7.45263 3.36669C7.45263 5.18955 6.25394 6.73339 4.18665 6.73339H1.28553V11.1789H0V11.1603ZM4.03036 1.22759H1.28553V5.48718H4.03036C5.26379 5.48718 6.11505 4.61293 6.11505 3.36669C6.11505 2.10186 5.26379 1.22759 4.03036 1.22759Z" fill="#E8C994"/>
<path d="M18.383 11.1603L15.7617 6.71477H13.7058V11.1603H12.4209V0H16.5498C18.4344 0 19.7707 1.30203 19.7707 3.36669C19.7707 5.37555 18.5029 6.47299 17.0981 6.62179L19.8735 11.1789H18.383V11.1603ZM16.4127 1.22759H13.7058V5.50569H16.4127C17.6291 5.50569 18.4686 4.61293 18.4686 3.36669C18.4686 2.10186 17.6291 1.22759 16.4127 1.22759Z" fill="#E8C994"/>
<path d="M24.8418 11.1789V0H32.2944V1.22963H26.2604V4.84416H32.162V6.07391H26.2604V9.93055H32.2944V11.1789H24.8418Z" fill="#E8C994"/>
<path d="M45.7745 11.1789V1.86316L41.8772 11.1789H41.3068L37.4283 1.86316V11.1789H36.0215V0H38.0558L41.5919 8.51465L45.1472 0H47.2004V11.1789H45.7745Z" fill="#E8C994"/>
<path d="M53.4101 0H52.168V11.1789H53.4101V0Z" fill="#E8C994"/>
<path d="M58.3789 0H59.7097V6.69636C59.7097 8.70894 60.7566 9.97145 62.7262 9.97145C64.6959 9.97145 65.7428 8.70894 65.7428 6.69636V0H67.0736V6.69636C67.0736 9.42249 65.6186 11.1789 62.7262 11.1789C59.8339 11.1789 58.3789 9.42251 58.3789 6.71467V0Z" fill="#E8C994"/>
<path d="M81.7951 11.1789V1.86316L77.9167 11.1789H77.3273L73.4679 1.86316V11.1789H72.042V0H74.0763L77.6124 8.51465L81.1867 0H83.2209V11.1789H81.7951Z" fill="#E8C994"/>
<path d="M91.915 5.58953C91.915 2.26462 94.4316 0 97.5774 0C99.5944 0 100.964 0.916602 101.833 2.13873L100.668 2.76783C100.038 1.86921 98.8912 1.20424 97.5774 1.20424C95.1903 1.20424 93.3398 3.01946 93.3398 5.58953C93.3398 8.14162 95.1903 9.97482 97.5774 9.97482C98.8912 9.97482 100.038 9.32782 100.668 8.41122L101.852 9.04022C100.927 10.2623 99.5944 11.1789 97.5774 11.1789C94.4316 11.1789 91.915 8.91444 91.915 5.58953Z" fill="#E8C994"/>
<path d="M105.579 11.1789V0H106.895V9.93055H111.79V11.1789H105.579Z" fill="#E8C994"/>
<path d="M124.021 11.1789L123.106 8.70092H117.862L116.948 11.1789H115.516L119.673 0H121.278L125.452 11.1789H124.021ZM120.467 1.22963L118.207 7.45263H122.692L120.467 1.22963Z" fill="#E8C994"/>
<path d="M129.889 8.43827C130.55 9.23162 131.608 9.98898 133.012 9.98898C134.781 9.98898 135.342 8.94314 135.342 8.11374C135.342 6.81554 134.136 6.45492 132.831 6.07628C131.244 5.62552 129.476 5.13867 129.476 3.01107C129.476 1.22604 130.93 0 132.88 0C134.4 0 135.574 0.558995 136.4 1.51461L135.656 2.50627C134.913 1.60474 133.872 1.20801 132.781 1.20801C131.591 1.20801 130.749 1.91123 130.749 2.92094C130.749 4.00277 131.889 4.3273 133.161 4.70594C134.781 5.17473 136.631 5.73371 136.631 8.00556C136.631 9.57421 135.656 11.1789 132.979 11.1789C131.261 11.1789 129.988 10.4577 129.179 9.46603L129.889 8.43827Z" fill="#E8C994"/>
<path d="M141.187 8.43827C141.959 9.23162 143.192 9.98898 144.831 9.98898C146.894 9.98898 147.549 8.94314 147.549 8.11374C147.549 6.81554 146.142 6.45492 144.619 6.07628C142.768 5.62552 140.705 5.13867 140.705 3.01107C140.705 1.22604 142.402 0 144.677 0C146.45 0 147.819 0.558995 148.783 1.51461L147.916 2.50627C147.048 1.60474 145.834 1.20801 144.561 1.20801C143.173 1.20801 142.19 1.91123 142.19 2.92094C142.19 4.00277 143.52 4.3273 145.005 4.70594C146.894 5.17473 149.053 5.73371 149.053 8.00556C149.053 9.57421 147.916 11.1789 144.792 11.1789C142.787 11.1789 141.303 10.4577 140.358 9.46603L141.187 8.43827Z" fill="#E8C994"/>
<path d="M171.41 11.1603V0H175.862C177.596 0 178.663 1.17178 178.663 2.84582C178.663 4.25947 177.829 5.1895 176.912 5.41271C177.979 5.59871 178.863 6.82643 178.863 8.16567C178.863 9.95132 177.796 11.1789 175.962 11.1789H171.41V11.1603ZM172.661 4.8361H175.662C176.795 4.8361 177.396 4.07355 177.396 3.05052C177.396 2.04609 176.795 1.2462 175.662 1.2462H172.661V4.8361ZM172.661 9.93274H175.728C176.895 9.93274 177.596 9.18865 177.596 7.99821C177.596 6.97518 176.962 6.0638 175.728 6.0638H172.661V9.93274Z" fill="#E8C994"/>
<path d="M186.877 11.1789V6.44657L182.59 0H184.17L187.549 5.19817L190.946 0H192.527L188.24 6.44657V11.1789H186.877Z" fill="#E8C994"/>
<path d="M208.476 11.1789L201.458 2.16121V11.1789H199.979V0H201.498L208.416 8.83135V0H209.915V11.1789H208.476Z" fill="#E8C994"/>
<path d="M220.847 11.1603L218.226 6.71477H216.17V11.1603H214.885V0H219.014C220.898 0 222.235 1.30203 222.235 3.36669C222.235 5.37555 220.967 6.47299 219.562 6.62179L222.337 11.1789H220.847V11.1603ZM218.859 1.22759H216.153V5.5058H218.859C220.076 5.5058 220.915 4.61293 220.915 3.36669C220.915 2.10186 220.093 1.22759 218.859 1.22759Z" fill="#E8C994"/>
<path d="M231.697 0C233.63 0 234.979 0.843257 235.946 2.02755L234.87 2.69157C234.177 1.81232 233.01 1.2022 231.697 1.2022C229.309 1.2022 227.486 3.01453 227.486 5.58049C227.486 8.12851 229.309 9.97674 231.697 9.97674C233.01 9.97674 234.086 9.34867 234.633 8.81035V6.62126H230.877V5.41895H236V9.31283C234.979 10.4253 233.484 11.1789 231.697 11.1789C228.58 11.1789 226.063 8.936 226.063 5.59845C226.063 2.22502 228.58 0 231.697 0Z" fill="#E8C994"/>
<path fill-rule="evenodd" clip-rule="evenodd" d="M159.61 3.72656C160.648 3.72656 161.473 4.55256 161.473 5.58978C161.473 6.627 160.648 7.45288 159.61 7.45288C158.573 7.45288 157.747 6.627 157.747 5.58978C157.747 4.57177 158.573 3.72656 159.61 3.72656Z" fill="#E8C994"/>
</svg>
