<svg width="50" height="49" viewBox="0 0 50 49" fill="none" xmlns="http://www.w3.org/2000/svg">
<circle cx="24.9994" cy="24.3529" r="24.3529" fill="#164247"/>
<path d="M12.9583 23.9574C18.7692 21.4257 22.644 19.7566 24.5827 18.9502C30.1183 16.6478 31.2685 16.2479 32.0182 16.2345C32.1831 16.2317 32.5518 16.2726 32.7906 16.4664C32.9923 16.63 33.0478 16.8511 33.0743 17.0062C33.1009 17.1613 33.1339 17.5147 33.1076 17.7909C32.8077 20.9427 31.5097 28.5915 30.8494 32.1216C30.5699 33.6153 30.0198 34.1162 29.4871 34.1652C28.3296 34.2717 27.4506 33.4002 26.3295 32.6653C24.5751 31.5153 23.584 30.7994 21.8811 29.6772C19.9131 28.3803 21.1889 27.6675 22.3105 26.5026C22.604 26.1978 27.7041 21.5588 27.8028 21.138C27.8152 21.0854 27.8266 20.8892 27.7101 20.7856C27.5935 20.682 27.4215 20.7174 27.2974 20.7456C27.1214 20.7855 24.3188 22.6379 18.8896 26.3028C18.0941 26.8491 17.3735 27.1152 16.728 27.1013C16.0163 27.0859 14.6472 26.6989 13.6295 26.3681C12.3812 25.9623 11.3891 25.7477 11.4755 25.0586C11.5205 24.6997 12.0147 24.3326 12.9583 23.9574Z" fill="#E8C994"/>
</svg>
