<svg width="49" height="49" viewBox="0 0 49 49" fill="none" xmlns="http://www.w3.org/2000/svg">
<circle cx="24.3529" cy="24.3529" r="24.3529" fill="#164247"/>
<path d="M30.3464 16.4125C28.8524 15.4389 27.9471 13.7819 27.9471 12H24.1567L24.1494 27.1627C24.0831 28.9152 22.6038 30.2856 20.8484 30.2158C19.0931 30.1496 17.7205 28.6727 17.7904 26.9202C17.8566 25.2118 19.2624 23.8634 20.9736 23.8634C21.2937 23.8634 21.6102 23.9148 21.9119 24.0104V20.1453C21.5991 20.1012 21.2863 20.0792 20.9736 20.0755C17.128 20.0755 14 23.1984 14 27.0377C14.0074 30.8808 17.1243 33.9963 20.9772 34C24.8228 34 27.9508 30.8771 27.9508 27.0377V19.3517C29.4853 20.4539 31.329 21.0491 33.2205 21.0454V17.2612C32.1975 17.2649 31.2002 16.9673 30.3464 16.4125Z" fill="#E8C994"/>
</svg>
