<svg width="45" height="45" viewBox="0 0 45 45" fill="none" xmlns="http://www.w3.org/2000/svg">
<path fill-rule="evenodd" clip-rule="evenodd" d="M0 4.91578V40.3353C0 40.758 0.338134 41.2511 0.718535 41.2511H44.1828C44.7041 41.2511 45 40.8284 45 40.3353V31.6847C45 30.2899 43.2671 30.2899 43.2671 31.6847V32.5019H30.5448V27.0072H43.2671V27.8244C43.2671 29.2755 45 29.2755 45 27.8244V4.91578C45 4.49311 44.6619 4 44.2815 4H22.5C22.0069 4 21.6828 4.32405 21.6828 4.81716V11.129H8.96055V5.11302C8.96055 4.47902 8.66468 4 8.04477 4H0.718535C0.338134 4 0 4.49311 0 4.91578ZM1.73294 5.62023H7.22761V11.1149H1.73294V5.62023ZM23.3172 5.62023H36.0394V11.1149H23.3172V5.62023ZM37.7583 5.62023H43.253V11.1149H37.7583V5.62023ZM1.73294 12.7492H14.4552V18.2439H1.73294V12.7492ZM16.0895 12.7492H28.6146C28.8541 12.7492 28.9245 12.8197 28.9245 13.0592V18.2439H16.1036V12.7492H16.0895ZM30.5448 12.7492H43.2671V18.2439H30.5448V12.7492ZM1.73294 19.8782H7.22761V25.3729H1.73294V19.8782ZM8.96055 19.8782H21.6828V25.3729H8.96055V19.8782ZM23.3172 19.8782H36.0394V25.3729H23.3172V19.8782ZM37.7583 19.8782H43.253V25.3729H37.7583V19.8782ZM1.73294 27.0072H14.4552V32.5019H1.73294V27.0072ZM16.0895 27.0072H28.9105V32.5019H16.0895V27.0072ZM1.73294 34.1221H7.22761V39.6168H1.73294V34.1221ZM8.96055 34.1221H21.6828V39.6168H8.96055V34.1221ZM23.3172 34.1221H36.0394V39.6168H23.3172V34.1221ZM37.7583 34.1221H43.253V39.6168H37.7583V34.1221Z" fill="#E8C994"/>
</svg>
