<svg width="45" height="45" viewBox="0 0 45 45" fill="none" xmlns="http://www.w3.org/2000/svg">
<path fill-rule="evenodd" clip-rule="evenodd" d="M18.1346 17.3759V28.2077H16.1154V12.5087H28.8963V28.2193H26.877V17.3876C26.877 16.1621 26.4685 15.2866 25.1145 15.2866H19.9088C18.5432 15.2866 18.1346 16.1621 18.1346 17.3759ZM25.3597 23.9357V28.2193H19.652V16.7923H25.3597V22.5V23.9357ZM8.90201 25.1963C8.90201 26.6903 10.1393 25.9083 10.326 25.8732V32.9349C10.256 33.5885 9.19381 34.2538 8.66857 34.8958L4.60668 39.1561V13.6059L9.67237 15.6018C9.94082 15.7068 10.3143 15.7535 10.3143 16.0453V24.029C10.326 24.4726 8.90201 24.5893 8.90201 25.1963ZM38.9693 26.1183C38.9693 26.737 40.0665 27.1338 40.3933 27.2155V39.1444C40.0898 38.9343 36.8333 35.3743 36.0863 34.6273C35.8412 34.3939 34.674 33.2733 34.674 33.0049V16.0337C34.674 15.7302 35.4444 15.5434 35.9813 15.3217L40.3817 13.5942V25.6048C40.0081 25.4064 39.9848 25.348 39.5413 25.348C39.2961 25.3597 38.9693 25.7915 38.9693 26.1183ZM3.43947 42.5877C3.68458 42.2142 5.78556 40.1716 6.10071 39.7864C6.26411 39.5879 6.28746 39.5296 6.48588 39.3312L14.9248 30.472C15.0999 30.297 15.5318 29.7367 15.7885 29.7367H29.2348C29.5033 29.7367 30.6471 30.9856 30.8455 31.2307C31.3474 31.861 31.9077 32.2695 32.4096 32.8648C32.6897 33.2033 32.8181 33.3434 33.1333 33.6585C33.4134 33.9387 33.6702 34.1721 33.927 34.4522L41.5955 42.576C39.4362 42.576 39.8681 42.8678 38.7942 41.5955L30.8922 33.2733C30.4954 32.7948 29.7017 32.1645 29.3515 31.6976C29.1298 31.4058 28.8613 31.0556 28.3944 31.0556H16.6289C16.0803 31.0556 15.6485 31.7326 14.9715 32.4213L11.9484 35.6194C11.68 35.8879 11.4465 36.098 11.1897 36.3781L10.4311 37.2185C10.1626 37.487 9.94082 37.6971 9.67237 37.9772C9.39224 38.2573 9.25217 38.4791 8.96037 38.7826L6.32248 41.5138C6.15907 41.7123 6.13572 41.7706 5.9373 41.9691C5.12025 42.8094 5.58713 42.5877 3.43947 42.5877ZM1.66531 1H1.75869C1.91042 1.01167 2.09718 1.0817 2.28393 1.22177L13.991 9.83578C14.3295 10.0926 15.3567 10.9913 15.7769 10.9913H29.2231C29.5149 10.9913 29.5733 10.8979 29.76 10.7695C32.9815 8.3184 36.5299 5.83225 39.7747 3.39278L42.3776 1.46688C42.8094 1.16341 43.323 0.708198 43.8016 1.28013C44.4435 2.03882 43.358 2.57573 42.471 3.24104C42.1558 3.47448 41.9107 3.63789 41.5955 3.87134L38.981 5.79723C38.374 6.20575 37.8488 6.63762 37.2302 7.08116L32.0128 10.933C31.7676 11.1197 30.3903 12.0418 30.3903 12.2519V28.5461C30.3903 28.7212 32.9232 31.3591 33.25 31.5692C33.25 27.1455 33.25 22.7218 33.25 18.298C33.25 17.4343 33.0749 15.6368 33.4134 15.0999C33.6469 14.7264 33.9153 14.5396 34.3588 14.3645C35.1876 14.0377 39.9498 12.0768 40.2182 12.0768C42.1091 12.0768 41.899 13.5592 41.899 15.0182V36.6933C41.899 41.7239 41.5372 40.1832 43.1012 42.0508C43.3814 42.3776 44 42.7394 44 43.253C44 43.7082 43.8016 44.0117 43.323 44.0117H1.67698C1.26846 44.0117 1 43.7432 1 43.3347C1 42.6927 1.57193 42.4359 1.94544 42.0157C3.49783 40.2533 3.10098 41.2337 3.10098 38.8059V14.9482C3.10098 14.0144 2.89088 12.0885 4.52497 12.0885C5.27199 12.0885 9.60233 13.9677 10.7579 14.4229C12.1935 14.9948 11.75 16.4655 11.75 18.3914C11.75 22.7918 11.75 27.1805 11.75 31.5809C11.9251 31.4642 14.6097 28.7913 14.6097 28.5578V12.2519C14.6097 12.0185 14.0027 11.6916 13.8043 11.5399L3.36944 3.83632C2.87921 3.48616 1 2.31895 1 1.75869C1 1.46688 1.24511 1.03502 1.66531 1ZM16.9558 32.5847H28.0442C28.3127 32.5847 28.4761 32.9582 28.6512 33.1566C28.8613 33.3901 29.0597 33.5651 29.2815 33.7869C30.8105 35.316 32.503 37.2652 34.032 38.7826L37.627 42.5877H7.38464L9.75407 40.0898C10.0109 39.8331 10.0926 39.7397 10.3143 39.4712C10.4894 39.2495 10.7229 39.051 10.933 38.8293L12.1118 37.5687C12.5087 37.1718 12.9756 36.7633 13.3257 36.3431C14.0727 35.4444 16.1854 33.4134 16.5939 32.8882C16.7106 32.7248 16.7223 32.5847 16.9558 32.5847Z" fill="#E8C994"/>
<path fill-rule="evenodd" clip-rule="evenodd" d="M18.8936 3.85966C18.8936 5.62215 20.7611 6.77769 22.5002 6.77769C24.2394 6.77769 26.1069 5.62215 26.1069 3.85966C26.1069 2.24891 24.3911 1 22.7453 1H22.2434C20.621 1 18.8936 2.26059 18.8936 3.85966ZM20.4109 3.94137C20.4109 1.96878 24.6129 1.96878 24.6129 3.94137C24.6012 5.69218 20.4109 5.69218 20.4109 3.94137Z" fill="#E8C994"/>
</svg>
