<svg width="45" height="45" viewBox="0 0 45 45" fill="none" xmlns="http://www.w3.org/2000/svg">
<path fill-rule="evenodd" clip-rule="evenodd" d="M1 31.3225C1 32.3488 1.62357 32.9854 2.29909 32.9854H42.7009C43.4804 32.9854 44 32.2969 44 31.3225C44 30.7379 43.2855 30.0234 42.7009 30.0234H2.29909C1.7145 30.0234 1 30.7509 1 31.3225Z" fill="#E8C994"/>
<path fill-rule="evenodd" clip-rule="evenodd" d="M1 37.26C1 38.2863 1.62357 38.9229 2.29909 38.9229H42.7009C43.3764 38.9229 44 38.2863 44 37.26C44 36.6495 43.3115 35.9609 42.7009 35.9609H2.29909C1.7145 35.9609 1 36.6754 1 37.26Z" fill="#E8C994"/>
<path fill-rule="evenodd" clip-rule="evenodd" d="M1 43.1819C1 44.2082 1.62357 44.8448 2.29909 44.8448H42.7009C43.3764 44.8448 44 44.2082 44 43.1819C44 42.5973 43.2855 41.8828 42.7009 41.8828H2.29909C1.7145 41.8828 1 42.6103 1 43.1819Z" fill="#E8C994"/>
<path fill-rule="evenodd" clip-rule="evenodd" d="M31.3086 5.83262C31.3086 6.81993 31.9452 7.40452 32.7896 7.40452C33.66 7.40452 33.7639 6.91087 34.2705 6.5731C33.9198 8.09304 33.582 9.09335 34.4524 10.8341C35.037 12.0033 35.3748 11.9254 35.3748 13.3414C35.3748 14.0429 34.7642 14.7574 34.4784 15.316C33.7249 16.797 33.6989 18.5508 34.4524 20.0057C35.1279 21.2918 35.3748 20.8631 35.3748 22.6039C35.3748 23.0586 34.8811 23.6952 34.6732 24.0329C34.1796 24.8384 33.647 26.4233 34.0497 27.3586C34.5693 28.5798 36.2841 28.5538 36.8038 27.3586C36.9726 26.9559 36.9077 26.9039 36.9726 26.4103C37.1026 25.306 39.5448 23.2015 37.921 19.8758C37.4143 18.8366 36.9597 18.8625 36.9597 17.4985C36.9597 16.3033 39.5968 14.1858 37.921 10.7952C37.5313 10.0027 36.3491 8.78157 37.3104 7.28761C37.5183 6.97583 37.6871 6.67704 37.882 6.37825C38.5835 6.84592 38.5316 7.39154 39.7397 7.39154C40.4412 7.39154 41.1297 6.5861 41.1297 5.91057C41.1297 5.04018 39.7397 3.92296 38.9732 3.15649C38.0639 2.24712 37.1285 1 36.2192 1C35.2189 1 34.3355 2.19516 33.4131 3.10453C32.9844 3.53323 32.6337 3.88398 32.205 4.31268C31.8152 4.72839 31.3086 5.09214 31.3086 5.83262Z" fill="#E8C994"/>
<path fill-rule="evenodd" clip-rule="evenodd" d="M17 5.83262C17 6.81993 17.6366 7.40452 18.481 7.40452C19.3514 7.40452 19.4553 6.91087 19.9619 6.5731C19.6112 8.09304 19.2734 9.09335 20.1438 10.8341C20.7284 12.0033 21.0662 11.9254 21.0662 13.3414C21.0662 14.0429 20.4556 14.7574 20.1698 15.316C19.4163 16.797 19.3903 18.5508 20.1438 20.0057C20.8193 21.2918 21.0662 20.8631 21.0662 22.6039C21.0662 23.0586 20.5725 23.6952 20.3647 24.0329C19.871 24.8384 19.3384 26.4233 19.7411 27.3586C20.2607 28.5798 21.9755 28.5538 22.4952 27.3586C22.664 26.9559 22.5991 26.9039 22.664 26.4103C22.794 25.306 25.2363 23.2015 23.6124 19.8758C23.1057 18.8366 22.6511 18.8625 22.6511 17.4985C22.6511 16.3033 25.2882 14.1858 23.6124 10.7952C23.2227 10.0027 22.0405 8.78157 23.0018 7.28761C23.2097 6.97583 23.3786 6.67704 23.5734 6.37825C24.2749 6.84592 24.223 7.39154 25.4311 7.39154C26.1326 7.39154 26.8211 6.5861 26.8211 5.91057C26.8211 5.04018 25.4311 3.92296 24.6647 3.15649C23.7553 2.24712 22.8199 1 21.9106 1C20.9103 1 20.0269 2.19516 19.1045 3.10453C18.6758 3.53323 18.3251 3.88398 17.8964 4.31268C17.5066 4.72839 17 5.09214 17 5.83262Z" fill="#E8C994"/>
<path fill-rule="evenodd" clip-rule="evenodd" d="M3 5.83262C3 6.81993 3.63656 7.40452 4.48097 7.40452C5.35136 7.40452 5.45529 6.91087 5.96193 6.5731C5.61118 8.09304 5.27341 9.09335 6.14381 10.8341C6.7284 12.0033 7.06616 11.9254 7.06616 13.3414C7.06616 14.0429 6.45559 14.7574 6.16979 15.316C5.41631 16.797 5.39033 18.5508 6.14381 20.0057C6.81934 21.2918 7.06616 20.8631 7.06616 22.6039C7.06616 23.0586 6.57251 23.6952 6.36465 24.0329C5.871 24.8384 5.33837 26.4233 5.74109 27.3586C6.26073 28.5798 7.97553 28.5538 8.49517 27.3586C8.66405 26.9559 8.59909 26.9039 8.66405 26.4103C8.79396 25.306 11.2363 23.2015 9.61239 19.8758C9.10574 18.8366 8.65106 18.8625 8.65106 17.4985C8.65106 16.3033 11.2882 14.1858 9.61239 10.7952C9.22266 10.0027 8.04048 8.78157 9.00181 7.28761C9.20967 6.97583 9.37855 6.67704 9.57342 6.37825C10.2749 6.84592 10.223 7.39154 11.4311 7.39154C12.1326 7.39154 12.8211 6.5861 12.8211 5.91057C12.8211 5.04018 11.4311 3.92296 10.6647 3.15649C9.75529 2.24712 8.81994 1 7.91057 1C6.91027 1 6.02689 2.19516 5.10453 3.10453C4.67583 3.53323 4.32508 3.88398 3.89638 4.31268C3.50665 4.72839 3 5.09214 3 5.83262Z" fill="#E8C994"/>
</svg>
