<svg width="45" height="45" viewBox="0 0 45 45" fill="none" xmlns="http://www.w3.org/2000/svg">
<path d="M28.7409 42.6513C28.7409 40.9512 28.7862 39.3192 28.7296 37.6871C28.6956 36.7918 27.9362 36.1911 27.0522 36.2024C26.2022 36.2138 25.4881 36.8484 25.4655 37.7325C25.4201 39.2852 25.4428 40.8379 25.4541 42.3906C25.4541 42.4813 25.6015 42.64 25.6808 42.64C26.6782 42.6626 27.6755 42.6513 28.7409 42.6513ZM16.0245 42.6513C17.0899 42.6513 18.1099 42.6626 19.1186 42.64C19.1979 42.64 19.334 42.4473 19.334 42.3339C19.3453 40.8492 19.3453 39.3759 19.334 37.8911C19.334 37.3811 19.1526 36.9278 18.7446 36.5991C18.2232 36.1684 17.6339 36.0778 17.0219 36.3498C16.3532 36.6444 16.0358 37.1998 16.0245 37.9138C16.0132 39.1152 16.0245 40.3165 16.0245 41.5179C16.0245 41.8806 16.0245 42.2433 16.0245 42.6513ZM34.5778 38.8885C34.5778 38.6958 34.5778 38.5485 34.5778 38.4012C34.5778 36.2704 34.5778 34.151 34.5778 32.0203C34.5778 31.839 34.5891 31.6463 34.6458 31.4876C34.7591 31.1703 35.0198 31.0456 35.3484 31.0796C35.6658 31.1136 35.8585 31.3063 35.9151 31.6123C35.9378 31.7596 35.9378 31.9183 35.9378 32.077C35.9378 34.185 35.9378 36.3044 35.9378 38.4125C35.9378 38.5598 35.9491 38.7072 35.9605 38.8885C36.7085 38.6505 37.2185 38.1858 37.5925 37.5851C38.6239 35.8624 38.7146 34.049 37.8759 32.247C37.3772 31.1816 37.1845 30.1162 37.2978 28.9602C37.3885 28.0875 37.1732 27.2601 36.6292 26.5575C35.8471 25.5601 34.7138 25.5601 33.9317 26.5575C33.3651 27.2941 33.1497 28.1442 33.263 29.0509C33.3991 30.1956 33.1497 31.2156 32.685 32.2583C31.801 34.219 31.9143 36.1458 33.2064 37.9365C33.5124 38.3785 33.9657 38.7072 34.5778 38.8885ZM10.199 38.8885C11.0377 38.6165 11.593 38.0725 11.9671 37.3698C12.8737 35.6471 12.9191 33.8904 12.0691 32.1336C11.6044 31.1703 11.4004 30.1956 11.525 29.1302C11.6384 28.1328 11.4344 27.2035 10.7544 26.4215C10.0403 25.5941 9.04296 25.5828 8.30627 26.3761C7.61492 27.1241 7.39958 28.0422 7.49025 29.0169C7.58092 30.0596 7.44491 31.0343 7.02557 31.9976C6.71956 32.689 6.47022 33.4483 6.40222 34.1964C6.25488 35.7377 6.62889 37.1771 7.80759 38.2878C8.0796 38.5372 8.43095 38.7072 8.83896 38.9678C8.83896 38.6618 8.83896 38.5145 8.83896 38.3558C8.83896 36.2591 8.83896 34.1624 8.83896 32.0543C8.83896 31.8956 8.83896 31.7483 8.86163 31.5896C8.91829 31.2836 9.11097 31.0909 9.41698 31.0569C9.74565 31.0229 10.0063 31.1476 10.1197 31.4536C10.1763 31.6236 10.1877 31.805 10.1877 31.9863C10.1877 34.117 10.1877 36.2364 10.1877 38.3672C10.199 38.5485 10.199 38.6958 10.199 38.8885ZM12.9871 30.6943C12.9871 30.7736 12.9871 30.8303 12.9984 30.8756C13.0778 31.0683 13.1458 31.2723 13.2478 31.4536C13.9391 32.8023 14.1658 34.2417 13.9051 35.7264C13.5311 37.8458 12.5677 39.5459 10.369 40.2599C10.301 40.2825 10.199 40.3845 10.199 40.4526C10.1877 41.1892 10.1877 41.9259 10.1877 42.6513H14.6531C14.6531 42.4813 14.6531 42.3339 14.6531 42.1753C14.6531 40.7699 14.6418 39.3759 14.6645 37.9818C14.6758 37.5851 14.7325 37.1658 14.8685 36.7918C15.3558 35.4544 16.7499 34.661 18.1552 34.8877C19.5946 35.1144 20.66 36.3498 20.6827 37.8571C20.7053 39.2965 20.6827 40.7359 20.6827 42.1753C20.6827 42.3226 20.6827 42.4699 20.6827 42.64H24.0601C24.0601 42.4586 24.0601 42.3113 24.0601 42.1639C24.0601 40.7586 24.0261 39.3645 24.0828 37.9705C24.1054 37.4265 24.2414 36.8484 24.4908 36.3724C25.1141 35.1711 26.5082 34.6157 27.8229 34.9557C29.1376 35.2844 30.0669 36.4404 30.0896 37.8345C30.1123 39.2852 30.101 40.7472 30.101 42.1979C30.101 42.3453 30.101 42.4926 30.101 42.6513H34.5778V41.1212C34.5778 40.3846 34.5664 40.3959 33.9091 40.1012C32.243 39.3645 31.3477 38.0045 30.9736 36.3044C30.781 35.4204 30.7923 34.491 30.713 33.539C30.6223 33.539 30.4523 33.539 30.2936 33.539C25.5788 33.539 20.864 33.539 16.1379 33.539C15.5372 33.539 15.2198 33.3123 15.2085 32.8703C15.1972 32.417 15.5145 32.179 16.1492 32.179C17.5092 32.179 18.8693 32.179 20.218 32.179C23.7428 32.179 27.2675 32.179 30.8036 32.179C30.9396 32.179 31.1663 32.1676 31.2117 32.077C31.4497 31.6463 31.631 31.1929 31.8577 30.7056H12.9871V30.6943ZM34.5778 5.22747C34.3737 5.22747 34.2037 5.22747 34.0451 5.22747C27.4375 5.22747 20.83 5.22747 14.2338 5.22747C13.5538 5.22747 13.2364 5.01212 13.2364 4.54744C13.2364 4.08276 13.5538 3.87876 14.2338 3.87876C21.2493 3.87876 28.2536 3.87876 35.2691 3.87876C35.7565 3.87876 36.0058 3.62942 36.0058 3.1194C36.0058 2.63205 35.7678 2.39405 35.2804 2.39405C26.7802 2.39405 18.2913 2.39405 9.79099 2.39405C8.61228 2.39405 8.78229 2.21271 8.75962 3.44808C8.74829 3.77676 8.87296 3.89009 9.20164 3.89009C9.81365 3.87876 10.437 3.87876 11.049 3.89009C11.5477 3.89009 11.8311 4.15077 11.8197 4.57011C11.8084 4.98946 11.525 5.22746 11.0264 5.2388C10.7544 5.2388 10.4823 5.2388 10.199 5.2388V24.5061C12.3637 25.4014 12.9418 27.1808 12.8964 29.3002H31.8237C31.869 28.7562 31.8577 28.2348 31.9597 27.7362C32.2203 26.3761 32.8777 25.2768 34.1924 24.6874C34.4871 24.5627 34.5778 24.4267 34.5778 24.1207C34.5664 17.9779 34.5664 11.835 34.5664 5.69214L34.5778 5.22747ZM36.1645 1.02267C37.1052 1.39668 37.4678 2.09937 37.3772 3.07407C37.3432 3.42541 37.3772 3.78809 37.2865 4.11676C37.1052 4.77412 36.5952 5.10279 35.9378 5.2388V5.72614C35.9378 11.8237 35.9378 17.9325 35.9265 24.03C35.9265 24.3587 36.0058 24.5287 36.3345 24.6761C37.7172 25.2994 38.3519 26.4668 38.5785 27.8948C38.6579 28.3708 38.6352 28.8695 38.6012 29.3569C38.5445 30.1276 38.6919 30.8416 39.0432 31.5443C40.2559 33.9697 39.9046 37.0071 38.2272 38.9112C37.6832 39.5345 37.0145 39.9765 36.2211 40.2259C36.1078 40.2599 35.9491 40.4072 35.9491 40.4979C35.9265 41.1892 35.9378 41.8919 35.9378 42.6513C36.4025 42.6513 36.8332 42.6513 37.2525 42.6513C37.8419 42.6513 38.4312 42.64 39.0206 42.6513C39.4739 42.6626 39.7686 42.9346 39.7686 43.3313C39.7686 43.728 39.4739 43.9887 39.0092 44C38.8959 44 38.7825 44 38.6692 44C27.8115 44 16.9425 44 6.08487 44C5.9602 44 5.83553 44 5.71086 44C5.29151 43.9773 5.00817 43.7053 5.00817 43.32C5.00817 42.9346 5.29152 42.6626 5.7222 42.6513C6.65156 42.64 7.56959 42.6513 8.49895 42.64C8.58962 42.64 8.69162 42.6286 8.83896 42.6173C8.83896 41.8806 8.83896 41.1666 8.82762 40.4412C8.82762 40.3619 8.71429 40.2599 8.62362 40.2259C6.42488 39.5005 5.46152 37.8118 5.09884 35.6811C4.83817 34.1624 5.09884 32.7003 5.81286 31.3289C6.16421 30.6489 6.20954 29.9236 6.14154 29.1642C6.00554 27.5208 6.44755 26.0928 7.77359 25.0161C7.92093 24.8914 8.09094 24.7441 8.27227 24.7101C8.81629 24.5967 8.83896 24.2454 8.83896 23.792C8.82762 17.7852 8.82762 11.7897 8.82762 5.78282C8.82762 5.60148 8.82762 5.42014 8.82762 5.22747C7.96626 5.00079 7.43358 4.52478 7.39958 3.59541C7.35425 2.51871 7.33158 1.46468 8.61228 1L36.1645 1.02267Z" fill="#E8C994"/>
<path d="M19.3343 13.0132C19.3343 12.2992 19.3456 11.5852 19.3343 10.8711C19.3116 9.8511 18.6203 9.14842 17.6682 9.14842C16.7162 9.15975 16.0362 9.87378 16.0249 10.8938C16.0135 12.3105 16.0249 13.7159 16.0135 15.1326C16.0135 15.4726 16.1269 15.62 16.4782 15.6086C17.2716 15.5973 18.0762 15.5973 18.8696 15.6086C19.2436 15.62 19.357 15.4499 19.3456 15.0986C19.323 14.4186 19.3343 13.7159 19.3343 13.0132ZM14.7101 13.0359C14.7101 12.1405 14.6195 11.2338 14.7328 10.3498C14.9368 8.76307 16.2969 7.69771 17.8496 7.79971C19.4363 7.90171 20.649 9.11442 20.683 10.7238C20.717 12.2765 20.7057 13.8292 20.683 15.3819C20.6717 16.2886 20.003 16.9347 19.0963 16.9573C18.1442 16.98 17.1922 16.98 16.2402 16.9573C15.3222 16.9347 14.6761 16.266 14.6535 15.3366C14.6421 14.5659 14.6535 13.7952 14.6535 13.0245H14.7101V13.0359Z" fill="#E8C994"/>
<path d="M25.431 12.9463C25.431 13.6603 25.4424 14.3743 25.431 15.0883C25.4197 15.4624 25.533 15.621 25.9297 15.6097C26.7118 15.587 27.4938 15.587 28.2758 15.6097C28.6498 15.621 28.7631 15.4624 28.7518 15.111C28.7405 13.717 28.7518 12.3116 28.7405 10.9175C28.7291 9.86351 28.0491 9.14949 27.0744 9.14949C26.1111 9.14949 25.4424 9.87485 25.431 10.9289C25.431 11.6089 25.431 12.2776 25.431 12.9463ZM30.1005 13.0369C30.1005 13.7736 30.1005 14.5217 30.1005 15.2583C30.0892 16.301 29.4318 16.9584 28.3891 16.9697C27.5278 16.9811 26.6551 16.9811 25.7824 16.9697C24.7397 16.9584 24.071 16.3124 24.071 15.2697C24.0597 13.7963 24.0597 12.3343 24.071 10.8609C24.0823 9.12683 25.397 7.80078 27.0858 7.80078C28.7745 7.80078 30.0779 9.11549 30.1005 10.8609C30.1119 11.5862 30.1119 12.3116 30.1005 13.0369Z" fill="#E8C994"/>
<path d="M28.7522 23.7463C28.7522 23.0436 28.7636 22.3522 28.7522 21.6495C28.7409 20.6295 28.0382 19.9155 27.0862 19.9268C26.1568 19.9268 25.4541 20.6295 25.4428 21.6269C25.4201 23.0663 25.4428 24.5056 25.4315 25.945C25.4315 26.2737 25.5675 26.387 25.8848 26.387C26.6782 26.3757 27.4829 26.3644 28.2762 26.387C28.6502 26.3984 28.7636 26.2397 28.7522 25.8883C28.7409 25.1743 28.7522 24.4603 28.7522 23.7463ZM24.1281 23.8256C24.1281 22.9189 24.0374 22.0009 24.1508 21.1055C24.3434 19.5188 25.7035 18.4874 27.3242 18.5668C28.8089 18.6461 30.0556 19.8815 30.1009 21.4229C30.1463 22.9983 30.1236 24.585 30.1123 26.1603C30.1009 27.0557 29.4096 27.7017 28.5142 27.7131C27.5962 27.7244 26.6668 27.7244 25.7488 27.7131C24.7854 27.7017 24.1168 27.0444 24.0941 26.081C24.0941 26.0583 24.0941 26.0243 24.0941 26.0017C24.0941 25.2763 24.0941 24.551 24.0941 23.8143C24.0941 23.8256 24.1054 23.8256 24.1281 23.8256Z" fill="#E8C994"/>
<path d="M20.6947 23.802C20.6947 24.5387 20.6947 25.2867 20.6947 26.0234C20.6833 27.0661 20.026 27.7234 18.9833 27.7234C18.0992 27.7234 17.2152 27.7348 16.3425 27.7234C15.3452 27.7121 14.6765 27.0547 14.6765 26.0687C14.6651 24.6973 14.6651 23.326 14.6765 21.9546C14.6765 21.4446 14.9485 21.1386 15.3792 21.1499C15.7872 21.1612 16.0252 21.4559 16.0252 21.9546C16.0252 23.2466 16.0252 24.5273 16.0252 25.8194C16.0252 26.3521 16.0592 26.3747 16.5579 26.3747C17.3286 26.3747 18.0992 26.3634 18.8699 26.3747C19.2099 26.3861 19.3459 26.2614 19.3459 25.91C19.3346 24.482 19.3573 23.054 19.3346 21.6259C19.3119 20.1865 17.9632 19.4612 16.7279 20.2092C16.3085 20.4585 15.9118 20.4132 15.6965 20.0732C15.4698 19.7332 15.5718 19.3478 15.9912 19.0758C16.9545 18.4412 17.9859 18.3505 19.0173 18.8605C20.1053 19.3932 20.6493 20.3225 20.6947 21.5239C20.7173 22.2833 20.6947 23.0426 20.6947 23.802Z" fill="#E8C994"/>
</svg>
