<svg width="45" height="45" viewBox="0 0 45 45" fill="none" xmlns="http://www.w3.org/2000/svg">
<path fill-rule="evenodd" clip-rule="evenodd" d="M6.21323 5.11734V40.4043H4.16622V25.5041C4.16622 24.5401 2.8809 24.6948 2.8809 25.3374V40.4162C0.917201 40.4162 1.00051 41.285 1.00051 43.0702C1.00051 44.0104 1.42895 44.8673 2.28584 44.8673H42.7142C43.571 44.8673 43.9995 44.0104 43.9995 43.0702C43.9995 41.2969 44.0828 40.4162 42.1191 40.4162V25.3374C42.1191 24.7067 40.8338 24.552 40.8338 25.5041V40.4043H38.7749V5.11734C38.7749 4.6889 38.4297 4.34375 38.0013 4.34375H6.98681C6.52266 4.35565 6.21323 4.65319 6.21323 5.11734ZM9.81929 5.64097H35.1688C35.0617 5.73618 35.145 5.67669 34.9665 5.7838L29.1706 8.55678C28.5756 8.81861 27.5402 9.11613 27.5402 9.92541V37.8456C27.5402 38.3216 28.2304 38.6311 28.5994 38.762L31.4675 39.8331C31.6818 39.9164 31.896 39.9997 32.1578 40.0949L32.86 40.4282H12.1281C12.3542 40.2377 13.2349 39.9402 13.5087 39.845L16.4363 38.7501C16.9362 38.5716 17.436 38.3097 17.436 37.6909V9.9373C17.436 9.06852 16.0436 8.68769 14.9011 8.10453L10.819 6.18844C10.6048 6.09323 10.5096 6.03371 10.2953 5.9385L9.81929 5.64097ZM8.01031 40.4162C7.29624 40.4162 7.49856 40.3567 7.49856 38.5359V6.06942L16.1507 10.092V37.5005C15.8413 37.5243 11.8901 39.0476 11.1284 39.3332C10.5453 39.5594 8.36734 40.4162 8.01031 40.4162ZM28.8255 10.092L37.4776 6.06942V38.4526C37.4776 41.1898 38.0846 40.8447 32.9076 39C32.2054 38.7501 31.6223 38.5002 30.9201 38.2502C30.5512 38.1193 30.2774 38.0241 29.9204 37.8813C29.6467 37.7742 29.1111 37.5362 28.8374 37.5124V10.092H28.8255ZM2.27394 43.1535C2.27394 42.1776 2.13112 41.7016 2.53576 41.7016H42.4523C42.8451 41.7016 42.7142 42.1776 42.7142 43.1535C42.7142 43.3796 42.6785 43.3915 42.6309 43.582H2.35724C2.32154 43.3915 2.27394 43.3796 2.27394 43.1535Z" fill="#E8C994"/>
<path fill-rule="evenodd" clip-rule="evenodd" d="M2.88086 2.54716V22.4221C2.88086 23.2671 4.03527 23.398 4.15429 22.4102V3.30883C4.15429 2.84469 4.04718 2.28533 4.49942 2.28533H40.4767C40.9171 2.28533 40.8218 2.79707 40.8218 3.22552C40.7504 8.98569 40.8218 15.0672 40.8218 20.875C40.8218 22.3388 40.5957 23.1005 41.5954 23.1005C41.7977 23.1005 42.1072 22.7911 42.1072 22.5887V2.54716C42.1072 1.71407 41.3931 1 40.56 1H4.41611C3.58303 1.0119 2.88086 1.72598 2.88086 2.54716Z" fill="#E8C994"/>
<path fill-rule="evenodd" clip-rule="evenodd" d="M30.2891 24.9923V35.5248C30.2891 36.3817 30.8008 36.4531 31.4316 36.703L34.7996 38.0479C35.359 38.2502 36.204 38.3692 36.204 37.5004V24.5638C36.204 24.2544 35.7874 23.9688 35.4304 23.9688H31.4911C30.7175 23.9688 30.2891 24.2306 30.2891 24.9923ZM31.5744 35.1916V25.3374C32.1694 25.3374 32.4075 25.2541 33.0263 25.2541H34.9067V36.6435C34.6211 36.6197 32.8478 35.8699 32.2885 35.6676C32.0147 35.5605 31.5744 35.4772 31.5744 35.1916Z" fill="#E8C994"/>
<path fill-rule="evenodd" clip-rule="evenodd" d="M8.78418 24.5638V37.5004C8.78418 38.1312 9.33163 38.3811 10.1171 38.0597L13.497 36.7268C14.1159 36.4769 14.6991 36.4055 14.6991 35.5248V24.9923C14.6991 24.2306 14.2706 23.9688 13.497 23.9688H9.55776C9.20072 23.9688 8.78418 24.2544 8.78418 24.5638ZM10.0695 36.6435V25.2541H11.7833C12.4497 25.2541 12.7592 25.3374 13.4137 25.3374V35.1916C13.4137 35.501 12.4259 35.7509 11.819 36.0008C11.4381 36.1437 10.4146 36.6197 10.0695 36.6435Z" fill="#E8C994"/>
<path fill-rule="evenodd" clip-rule="evenodd" d="M30.2891 11.9719V22.076C30.2891 22.6711 30.5628 23.0996 31.1459 23.0996H35.597C35.7041 23.0996 35.9302 22.9567 36.0016 22.8972C36.1444 22.7663 36.204 22.6592 36.204 22.4093V9.556C36.204 9.35368 35.9183 8.96094 35.5137 8.96094C34.9305 8.96094 32.1575 10.4724 31.2888 10.9008C30.8365 11.1389 30.2891 11.3412 30.2891 11.9719ZM31.5744 12.4004C31.5744 12.1267 32.0623 11.9838 32.3123 11.8529C32.8716 11.5792 34.5497 10.6866 34.9067 10.5914V21.8142H31.5744V12.4004Z" fill="#E8C994"/>
<path fill-rule="evenodd" clip-rule="evenodd" d="M8.78418 9.58036V22.4336C8.78418 22.9216 9.23642 23.1239 9.37924 23.1239H13.8303C14.4134 23.1239 14.6872 22.6835 14.6872 22.1004V12.1629C14.6872 11.3417 14.3301 11.2941 13.7708 11.0204C12.8663 10.5681 10.0457 8.99719 9.37924 8.99719C9.15312 8.97339 8.78418 9.34233 8.78418 9.58036ZM10.0695 10.6039C10.4384 10.6872 12.1046 11.5798 12.664 11.8654C12.9139 11.9963 13.4018 12.1391 13.4018 12.4128V21.8386H10.0695V10.6039Z" fill="#E8C994"/>
</svg>
