<svg width="153" height="65" viewBox="0 0 153 65" fill="none" xmlns="http://www.w3.org/2000/svg">
<path d="M17.0935 60.1888L6.2896 12.3789H0L11.0865 61.9049H17.6587L28.8901 12.3789H27.8902L17.0935 60.1888Z" fill="#E8C994"/>
<path d="M127.828 43.825L135.161 13.8777L142.058 43.825H127.828ZM141.126 12.3789H134.513L122.439 61.9049H123.444L127.617 44.7518H142.284L146.238 61.9049H152.705L141.126 12.3789Z" fill="#E8C994"/>
<path d="M142.703 7.95827C142.497 8.05301 142.279 8.14775 142.099 8.29775C141.288 8.96094 140.787 9.93203 140.324 11.0058C140.549 10.9979 140.742 11.0058 140.928 10.9663C141.012 10.9505 141.108 10.8716 141.16 10.7926C141.365 10.4531 141.539 10.082 141.764 9.75045C142.028 9.35569 142.041 9.3715 142.426 9.54519C142.517 9.58467 142.607 9.63202 142.697 9.67149C145.597 10.9347 147.963 9.1899 149.101 6.7661C149.931 4.9976 150.091 3.04751 149.854 1.04216C149.815 0.694774 149.744 0.355279 149.686 0C149.603 0.0394755 149.551 0.0552782 149.506 0.0868586C148.754 0.497404 147.963 0.750049 147.134 0.805315C146.06 0.868476 145.011 1.11322 144.002 1.59482C141.951 2.57382 140.787 4.71338 140.87 7.4056C140.883 7.79246 140.947 8.17932 140.992 8.63724C141.513 8.07668 142.041 7.7293 142.619 7.47666C143.751 6.97927 144.825 6.31609 145.777 5.41605C146.375 4.8555 146.928 4.23179 147.5 3.62387C146.214 5.59764 144.651 7.0977 142.703 7.95827Z" fill="#E8C994"/>
<path d="M75.1366 40.957L75.0356 42.3024C74.8407 44.4018 74.4871 46.3681 73.9892 48.1939C72.9933 49.8054 71.7882 51.2617 70.2944 52.4666C67.9058 54.396 65.0627 55.453 62.0318 55.5787C58.7484 55.7192 55.3278 54.9356 52.5423 53.1097C52.0228 52.7697 51.5177 52.4001 51.0269 52.0231C50.6012 51.6017 50.1826 51.1804 49.7569 50.759C49.7064 50.759 49.6558 50.759 49.6125 50.7516C49.6558 50.7368 49.6991 50.7368 49.7569 50.759C48.5084 49.1919 47.5054 46.6268 49.1507 44.971C49.8362 44.1209 48.5445 43.5517 47.8734 43.426C46.1848 42.7016 49.4249 41.4079 48.8837 40.8757C48.5445 40.5874 48.0971 41.1566 47.8806 41.4005C47.7146 41.5484 47.5703 42.0141 47.3538 41.9993C46.8487 41.127 49.2228 39.7595 49.9517 39.619C52.3403 38.2071 48.4868 38.1036 46.9858 41.881C46.9064 42.088 46.8775 42.3541 46.6105 42.4724C46.4445 40.41 48.963 38.4437 50.6733 37.771C50.9908 37.6453 51.6115 37.4975 51.2867 37.0318C51.229 36.9357 51.0702 36.8618 51.1785 36.7065C51.7702 36.5513 57.5216 37.6527 55.9629 36.1151C53.7114 34.171 52.5856 36.6178 52.0444 35.849C52.03 35.4351 53.1052 35.7825 53.1629 35.3094C53.0908 35.1763 52.9898 35.0581 52.8599 34.9768C52.7444 34.8954 52.6001 34.8511 52.463 34.8289C52.3114 34.8067 52.1527 34.8067 52.0011 34.8289C51.8351 34.8511 51.6692 34.888 51.5104 34.9398C51.3444 34.9915 51.1785 35.0581 51.0125 35.1394C50.8537 35.2133 50.695 35.2946 50.5434 35.3833C50.428 35.4498 50.3197 35.5238 50.2043 35.5977C50.1032 35.6642 50.0094 35.7307 49.9084 35.7973C49.8362 35.8416 49.7641 35.8786 49.6991 35.9303C49.663 35.9599 49.6342 35.9821 49.5981 36.0191C49.4898 36.1225 49.3816 36.226 49.2733 36.3295C49.1651 36.433 49.0569 36.5439 48.9414 36.6326C48.8548 36.6991 48.7538 36.773 48.6455 36.7952C48.5734 36.81 48.5084 36.7878 48.4651 36.7287C48.393 36.2852 47.2672 36.9948 47.1157 37.0835C46.9713 37.1648 45.4271 38.111 45.3982 37.8375C45.391 37.7932 45.4054 37.7562 45.4271 37.7118C45.6941 37.1205 46.3147 36.7287 46.661 36.1817C46.7693 36.0116 46.9208 35.7603 46.8342 35.5459C46.7476 35.3316 46.3508 35.1689 46.1415 35.2133C45.7157 35.302 45.3044 35.4424 44.9147 35.6272C44.5467 35.8047 44.2003 36.019 43.8756 36.2778C43.558 36.5291 43.2766 36.8174 43.024 37.1279C42.7643 37.4457 42.5478 37.7858 42.3457 38.148C42.1437 38.5176 41.9777 38.902 41.8406 39.2938C41.6962 39.7003 41.5808 40.1143 41.487 40.5431C41.3932 40.9644 41.3282 41.4079 41.2849 41.8515C41.2416 42.295 41.22 42.7385 41.22 43.182C41.22 43.6256 41.2416 44.0617 41.2849 44.5052C41.3282 44.934 41.3859 45.3627 41.4725 45.7841C41.5519 46.1833 41.6457 46.5898 41.7684 46.9816C41.9705 47.61 42.1581 48.2457 42.4035 48.8592C42.6199 49.3915 42.8725 49.9015 43.1467 50.4042C43.4209 50.8995 43.7312 51.3874 44.056 51.8531C44.3807 52.3188 44.7415 52.7697 45.1096 53.1984C45.4848 53.6346 45.8817 54.0411 46.293 54.4329C46.7043 54.8247 47.1373 55.2017 47.5848 55.5565C48.0322 55.9114 48.4868 56.244 48.963 56.5619C49.4321 56.8797 49.9156 57.168 50.4135 57.4415C50.6445 57.5746 50.8826 57.7003 51.1207 57.8185C54.8515 59.7109 59.0587 60.2801 63.1143 59.2896C66.174 58.543 69.0244 56.9389 71.2254 54.6399C71.1604 54.7803 71.0594 54.9873 70.9078 55.2609C70.6264 55.7044 70.3233 56.1479 70.013 56.5693C69.544 57.1902 69.046 57.7816 68.512 58.3434C66.9605 59.844 64.6802 61.3372 61.4689 61.9508C61.1803 62.0025 60.9133 62.0616 60.6751 62.106C58.9937 62.2538 57.2835 62.1725 55.6237 61.9212C55.4938 61.899 55.3639 61.8768 55.2412 61.8547C54.5485 61.729 53.8774 61.522 53.2135 61.3076C53.0403 61.2559 52.8743 61.1968 52.7011 61.1376C51.9073 60.8567 51.1279 60.5314 50.3702 60.1618C47.3177 58.6538 44.6188 56.4066 42.656 53.568C41.754 52.267 40.8303 50.9143 40.2313 49.4284C39.4664 47.573 39.0262 45.5771 38.8963 43.5738C38.7303 40.9866 39.1705 37.9188 41.1983 36.1225C41.5086 35.849 41.8333 35.6199 42.2086 35.4424C42.7931 34.925 46.5384 33.5427 45.1529 32.626C44.258 32.2786 43.4137 33.0548 42.6993 33.4983C42.6199 33.5501 42.5261 33.6535 42.4323 33.5796C42.2302 33.2026 42.7571 32.7813 43.0385 32.5965C43.4282 32.3156 43.8683 32.1086 44.323 31.9755C44.7704 31.8425 45.2322 31.7612 45.7013 31.6872C45.9178 31.6503 46.1343 31.6133 46.3507 31.6059C46.459 31.6059 46.5672 31.5985 46.6683 31.6207C46.7765 31.6429 46.8848 31.6725 47.0002 31.6872C47.2023 31.7168 47.4043 31.739 47.6064 31.739C48.0033 31.7464 48.4218 31.7094 48.7899 31.5468C48.8692 31.5098 48.9486 31.4729 49.0136 31.4285C49.7135 30.8889 48.9342 30.2827 48.3425 30.2014C45.8889 29.7653 43.4426 31.2437 41.8333 33.0844C41.8838 33.0326 41.8983 32.8922 41.9272 32.8256C41.9632 32.7369 41.9993 32.6556 42.0354 32.5669C42.1076 32.4043 42.1941 32.249 42.2807 32.1012C42.4467 31.8203 42.6488 31.5616 42.8725 31.325C43.3055 30.8741 43.8323 30.5193 44.3879 30.2458C44.8065 30.0388 45.2394 29.8762 45.6724 29.7283C46.0982 29.5805 46.524 29.4252 46.9642 29.3291C47.2456 29.27 47.5198 29.233 47.8085 29.2183C48.0177 29.2109 48.2198 29.2109 48.429 29.2257C48.8404 29.2552 49.2373 29.3365 49.6414 29.4326C50.4352 29.6248 51.2217 29.9057 52.0228 30.0609C52.2898 30.1127 52.5568 30.1497 52.8238 30.1645C53.4877 30.1645 53.5093 29.5731 53.3217 29.063C53.2929 28.9152 53.1846 28.7378 53.3217 28.6269C53.4805 28.4938 53.6392 28.6417 53.7619 28.7378C55.5299 29.8244 56.5041 32.3969 58.8566 32.2195C60.0329 31.7168 58.4814 30.231 58.0051 29.684C57.8103 29.4696 57.601 29.2774 57.3484 29.1443C57.1102 29.0113 56.8432 28.9226 56.5835 28.8486C56.2371 28.7525 55.8835 28.6934 55.5299 28.6195C55.5155 28.6195 55.4938 28.6121 55.4794 28.6047C55.4144 28.5677 55.3711 28.4347 55.3423 28.3682C55.3062 28.2795 55.2629 28.1538 55.3134 28.0577C55.3639 27.9616 55.4938 27.9912 55.5804 28.0133C55.8907 28.0946 56.1649 28.2868 56.4752 28.3755C56.5258 28.3903 56.5763 28.4051 56.6196 28.3977C57.1608 28.5677 57.4855 28.1464 57.1247 27.6807C55.8474 25.6626 52.932 26.1579 51.0125 26.801C50.8898 26.8528 50.7599 26.9045 50.6372 26.9563C50.3341 27.0671 50.0383 27.1706 49.7352 27.2741C48.5012 27.2815 49.9878 26.2392 48.1043 25.4556C48.8909 25.1747 49.728 24.1177 48.5662 23.7554C47.8445 23.578 47.1229 23.4302 46.3796 23.408C46.1776 23.4006 46.0838 23.3785 46.1487 23.1271C46.2497 20.6729 41.8117 22.9053 40.8303 23.578C40.8014 23.5706 40.7798 23.578 40.7653 23.6076C40.3973 23.822 40.0437 24.0511 39.7046 24.2951C43.0457 17.3464 48.963 13.3842 56.035 13.3842C67.343 13.3842 75.216 23.6446 75.216 38.5324C75.216 39.3751 75.1871 40.1956 75.1438 41.0014L75.1366 40.957ZM71.3769 54.5068L71.3697 54.4995C71.3697 54.4995 71.3985 54.4699 71.4202 54.4477C71.4057 54.4699 71.3913 54.4847 71.3769 54.5068ZM112.041 46.9225C108.692 41.0753 101.873 37.8449 94.866 37.6084V13.946H88.595V38.2219C87.628 38.4437 86.6827 38.732 85.759 39.0868C84.2147 39.5821 82.8508 40.1143 81.6457 40.6613C81.6962 39.9443 81.7323 39.2199 81.7323 38.488C81.7323 37.9041 81.7106 37.3349 81.6818 36.7583L81.588 35.5164C80.2602 21.7891 69.746 12.3789 56.035 12.3789C41.3643 12.3789 30.2656 23.1567 30.2656 38.4806C30.2656 53.8046 41.3571 64.6563 56.035 64.6563C68.4326 64.6563 78.2252 56.9093 80.9602 45.2593C81.054 45.1927 81.1406 45.1188 81.2271 45.0449C83.1828 43.4777 85.7518 42.3837 88.595 41.7923V64.5084H94.866V41.3044C101.592 41.6075 108.498 44.4683 112.041 50.2859V64.5084H118.312V13.946H112.041V46.9225Z" fill="#E8C994"/>
<path d="M52.4716 20.6887C52.6504 20.6545 52.8369 20.6289 53.0002 20.5605C53.0623 20.5349 53.1167 20.4922 53.1789 20.4494C53.2333 20.4067 53.2955 20.364 53.3499 20.3213C53.3965 20.2785 53.4432 20.2444 53.482 20.1931C53.5131 20.1589 53.5442 20.1162 53.5753 20.0735C53.5986 20.0393 53.622 19.9966 53.6297 19.9538C53.6375 19.9197 53.653 19.8855 53.653 19.8428C53.653 19.8086 53.653 19.7744 53.6452 19.7402C53.6375 19.706 53.6219 19.6804 53.5986 19.6462C53.5753 19.612 53.552 19.5864 53.5287 19.5608C53.4976 19.5352 53.4665 19.5095 53.4276 19.4839C53.3888 19.4582 53.3421 19.4326 53.2955 19.4241C53.2411 19.407 53.1945 19.3813 53.1401 19.3643C53.0856 19.3472 53.0234 19.3301 52.9613 19.3215C52.8991 19.313 52.8292 19.2959 52.7592 19.2874C52.6893 19.2788 52.6115 19.2702 52.5338 19.2702C52.4561 19.2702 52.3706 19.2617 52.2928 19.2617C52.2073 19.2617 52.1218 19.2617 52.0363 19.2702C51.9431 19.2702 51.8576 19.2788 51.7643 19.2874C51.671 19.2959 51.5778 19.3044 51.4767 19.3215C51.3757 19.3386 51.2824 19.3557 51.1814 19.3728C51.0803 19.3899 50.9793 19.4155 50.8782 19.4412C50.7694 19.4668 50.6684 19.4924 50.5674 19.5266C50.4586 19.5608 50.3497 19.5864 50.2487 19.6291C50.1399 19.6633 50.0311 19.7061 49.9222 19.7488C49.8134 19.7915 49.6969 19.8342 49.588 19.8855C49.4715 19.9367 49.3626 19.988 49.2538 20.0393C49.1372 20.0991 49.0284 20.1589 48.9196 20.2187C48.803 20.2786 48.6942 20.3469 48.5854 20.4153C48.4765 20.4836 48.3677 20.552 48.2589 20.6289C48.1501 20.7058 48.0413 20.7827 47.9403 20.8682C47.8315 20.9536 47.7304 21.039 47.6294 21.1245C47.5206 21.2185 47.4195 21.3125 47.3262 21.4065C47.2252 21.509 47.1241 21.603 47.0309 21.7141C46.9454 21.8081 46.8599 21.9106 46.7744 22.0132C48.0102 21.2868 49.2694 20.5776 50.7383 20.7485C50.9249 20.7656 51.1192 20.7827 51.3057 20.7827C51.4923 20.7827 51.6866 20.7827 51.8809 20.7656C52.0752 20.7485 52.2618 20.7229 52.4561 20.6887H52.4716Z" fill="#E8C994"/>
<path d="M54.4109 23.538C53.6514 23.6389 52.9404 23.8943 52.2778 24.2036C54.6856 23.4238 56.8268 25.0573 59.0568 24.7145C59.8648 23.3565 55.5259 23.2019 54.4109 23.538Z" fill="#E8C994"/>
</svg>
