<svg width="145" height="101" viewBox="0 0 145 101" fill="none" xmlns="http://www.w3.org/2000/svg">
<g clip-path="url(#clip0_141_427)">
<path d="M72.2698 92.9677H7.85808V43.4835L40.048 11.3262L68.7975 40.0385H80.1199V40.0329L40.064 0.0335237V0L40.048 0.0167619L40.04 0.0127709V0.0199546L0 40.0201L0.0703255 101L72.2674 100.81L72.2698 92.9677Z" fill="white"/>
<path d="M19.1929 45.2266H27.6895L47.5676 71.0861V45.2266H57.2917V86.895H48.887L28.9473 61.0059H28.917V86.895H19.1929V45.2266Z" fill="white"/>
<path d="M90.0001 71.4222C92.4343 70.3797 94.3619 68.7921 95.7836 66.657C97.2045 64.5235 97.9157 62.0563 97.9157 59.2578C97.9157 56.5209 97.2756 54.0904 95.9985 51.9664C94.7207 49.8417 92.9354 48.1878 90.6442 47.0033C88.353 45.8188 85.7566 45.2266 82.8525 45.2266H64.5391V53.8661H82.4545C83.4974 53.8661 84.458 54.1111 85.337 54.602C86.2161 55.0921 86.9114 55.7498 87.4236 56.5775C87.9335 57.4053 88.19 58.2992 88.19 59.2586C88.19 60.321 87.9391 61.2756 87.4396 62.1241C86.9361 62.9718 86.2473 63.6359 85.3682 64.1148C84.4883 64.5953 83.5174 64.8347 82.4545 64.8347H78.2062V64.8395H64.5399V86.895H74.264V72.9547H80.4614L87.7625 86.895H98.8963L90.0001 71.423V71.4222Z" fill="white"/>
<path d="M137.827 65.4075H125.728V72.5736H125.737V73.9065H132.468C130.221 76.2556 127.06 77.7234 123.557 77.7234C116.759 77.7234 111.228 72.1976 111.228 65.4075C111.228 58.6165 116.759 53.0923 123.557 53.0923C128.897 53.0923 133.454 56.5013 135.165 61.2529L143.741 58.1831C140.767 49.9195 132.844 43.9922 123.558 43.9922C111.735 43.9922 102.117 53.5999 102.117 65.4083C102.117 77.2182 111.735 86.8259 123.558 86.8259C128.414 86.8259 132.894 85.2024 136.491 82.4742V86.8259H145V65.4083H137.827V65.4075Z" fill="white"/>
<path d="M84.0845 100.969C82.7372 100.969 81.6759 100.555 80.8999 99.7248L81.6639 98.6688C82.3376 99.3888 83.1639 99.7488 84.1429 99.7488C84.6679 99.7488 85.0611 99.6434 85.324 99.4319C85.5861 99.2204 85.718 98.9706 85.718 98.6808C85.718 98.3831 85.5614 98.1468 85.2481 97.9704C84.9348 97.794 84.5544 97.6551 84.1085 97.5538C83.6618 97.4524 83.2135 97.3311 82.7627 97.1898C82.312 97.0493 81.9308 96.8107 81.6167 96.4738C81.3035 96.1378 81.1468 95.7028 81.1468 95.1712C81.1468 94.5143 81.4114 93.9683 81.9396 93.5341C82.4686 93.0999 83.1559 92.8828 84.0014 92.8828C85.2081 92.8828 86.1871 93.2468 86.9391 93.9739L86.1519 94.9948C85.5566 94.4002 84.8006 94.1032 83.8839 94.1032C83.4764 94.1032 83.1535 94.191 82.9146 94.3674C82.6756 94.5438 82.5558 94.7801 82.5558 95.0778C82.5558 95.2734 82.6405 95.4378 82.8083 95.5711C82.9769 95.7044 83.1943 95.8113 83.4604 95.8936C83.7265 95.9758 84.0222 96.0556 84.3474 96.1338C84.6727 96.212 84.9972 96.3078 85.3224 96.4212C85.6477 96.5345 85.9434 96.6734 86.2095 96.8378C86.4756 97.0022 86.693 97.2289 86.8616 97.5187C87.0302 97.8084 87.1141 98.1524 87.1141 98.5515C87.1141 99.2555 86.8592 99.835 86.3501 100.288C85.8411 100.742 85.0851 100.969 84.0821 100.969H84.0845Z" fill="white"/>
<path d="M96.7738 100.828H91.4043V93H96.7738V94.2085H92.7788V96.239H96.6915V97.4475H92.7788V99.6193H96.7738V100.828Z" fill="white"/>
<path d="M107.267 100.828H105.681L103.942 97.9056H102.58V100.828H101.205V93H104.648C105.416 93 106.034 93.2267 106.504 93.6809C106.974 94.1342 107.209 94.7257 107.209 95.4528C107.209 96.1097 107.029 96.6357 106.669 97.0316C106.308 97.4267 105.87 97.6678 105.353 97.7532L107.267 100.828ZM104.459 96.6972C104.851 96.6972 105.172 96.5838 105.423 96.3572C105.674 96.1305 105.799 95.8288 105.799 95.4536C105.799 95.0785 105.673 94.7768 105.423 94.5501C105.172 94.3234 104.851 94.21 104.459 94.21H102.58V96.698H104.459V96.6972Z" fill="white"/>
<path d="M115.575 100.828H113.86L110.782 93H112.344L114.718 99.3376L117.091 93H118.654L115.575 100.828Z" fill="white"/>
<path d="M123.905 100.828H122.531V93H123.905V100.828Z" fill="white"/>
<path d="M132.354 100.973C131.179 100.973 130.2 100.596 129.416 99.8408C128.633 99.0857 128.242 98.1135 128.242 96.9242C128.242 95.7349 128.633 94.7627 129.416 94.0076C130.2 93.2525 131.179 92.875 132.354 92.875C133.717 92.875 134.767 93.4617 135.503 94.6358L134.328 95.2344C134.132 94.8976 133.857 94.6238 133.5 94.4131C133.144 94.2016 132.762 94.0962 132.354 94.0962C131.579 94.0962 130.934 94.362 130.421 94.8944C129.908 95.426 129.651 96.1029 129.651 96.925C129.651 97.7463 129.908 98.4232 130.421 98.9556C130.934 99.4879 131.578 99.7537 132.354 99.7537C132.769 99.7537 133.153 99.6484 133.506 99.4369C133.858 99.2253 134.132 98.9516 134.328 98.6155L135.503 99.2142C134.751 100.387 133.702 100.975 132.354 100.975V100.973Z" fill="white"/>
<path d="M144.999 100.828H139.629V93H144.999V94.2085H141.004V96.239H144.917V97.4475H141.004V99.6193H144.999V100.828Z" fill="white"/>
</g>
<defs>
<clipPath id="clip0_141_427">
<rect width="145" height="101" fill="white"/>
</clipPath>
</defs>
</svg>
