<svg width="50" height="50" viewBox="0 0 50 50" fill="none" xmlns="http://www.w3.org/2000/svg">
<g clip-path="url(#clip0_285_77)">
<path fill-rule="evenodd" clip-rule="evenodd" d="M43.5579 19.119C43.939 19.0912 44.5804 18.803 44.9522 18.6636C46.523 18.0501 47.2109 17.5668 48.5401 16.6837V38.5549C48.5401 39.6889 48.6981 41.1482 48.2333 41.8639C47.7314 42.6354 46.9134 43.0723 46.1791 43.5185C45.9003 43.6858 43.8833 44.6524 43.6974 44.5595C43.4185 44.4201 43.5672 41.5386 43.5672 41.1018V19.1283L43.5579 19.119ZM8.01379 35.2366V29.1855C8.44136 28.9625 9.91927 28.2467 10.3561 28.2096C10.4956 28.7859 11.4065 29.7711 11.8619 30.1243C12.652 30.7378 13.1539 30.9795 14.26 31.2397C14.26 34.5581 14.8363 33.9167 12.2802 34.335L8.01379 35.2459V35.2366ZM15.7287 33.768C15.7287 30.0035 15.3847 31.7881 17.4203 30.5798C17.9223 30.2824 18.5543 29.8176 18.8518 29.3714C19.9672 30.1243 19.9393 30.2824 21.4916 30.6449V33.3776C20.3483 33.3776 18.4428 33.5914 17.1973 33.675C16.6396 33.7122 16.3886 33.7773 15.7287 33.7773V33.768ZM14.26 29.6689C11.3321 28.9903 9.79843 24.5566 11.9549 21.3034C13.6559 18.7379 17.4575 18.9146 18.7216 22.7627C19.5861 25.4025 18.4335 28.4791 16.5094 29.3714C16.2585 29.483 15.9703 29.5388 15.7287 29.6596C15.7287 28.507 15.552 27.624 15.9889 27.1871C16.3142 26.8618 17.188 26.1647 17.188 25.6534C17.188 25.2538 16.8069 24.8727 16.4072 24.8727C16.119 24.8727 15.9238 25.1329 15.7194 25.263C15.7194 24.6031 15.8867 22.7534 15.5892 22.363C15.3383 22.0377 14.8456 22.0377 14.5482 22.2236C14.1578 22.4745 14.2507 22.8928 14.2507 23.497C14.26 25.5419 14.2507 27.5961 14.2507 29.6503L14.26 29.6689ZM19.3351 20.4854C20.5342 18.6915 23.4435 18.2825 25.2096 20.662C26.8362 22.8649 26.5573 26.6387 24.373 28.349C24.1313 28.5349 23.9919 28.665 23.7317 28.7859C23.4807 28.8974 23.1926 28.9532 22.9509 29.074C22.9509 27.9214 22.7743 27.0384 23.2111 26.6015C23.5365 26.2762 24.4102 25.5791 24.4102 25.0679C24.4102 24.6682 24.0291 24.2871 23.6294 24.2871C23.3413 24.2871 23.1461 24.5473 22.9416 24.6775C22.9416 23.9896 23.1089 22.205 22.7929 21.796C22.5326 21.4521 22.0957 21.4335 21.7704 21.638C21.38 21.889 21.473 22.3072 21.473 22.9114C21.4823 24.9563 21.473 27.0105 21.473 29.0647C20.497 28.8416 20.2832 28.4698 19.7162 28.0887C20.8688 25.9137 20.7573 23.1345 19.5489 20.9316L19.3258 20.4761L19.3351 20.4854ZM41.9871 24.3893L39.1521 23.2181C37.8973 22.7162 36.5123 22.0284 36.5123 23.5156C36.5123 24.0733 38.3248 24.538 39.1614 24.8727C39.654 25.0679 40.0444 25.2259 40.5463 25.4397C41.0204 25.6441 41.4666 25.9323 41.9871 26.0531V35.2366L37.9716 34.3722C35.1459 33.9074 32.1251 33.5356 29.1971 33.3776C27.0779 33.2661 25.0608 33.2846 22.9509 33.2846C22.9509 29.3993 22.5698 31.249 24.7634 29.9291C25.8974 29.2506 26.7247 28.1352 27.2173 26.9176C27.7285 25.6348 27.7285 24.9563 27.7285 23.6271C27.7285 23.088 27.6263 23.0508 27.6263 22.5489C31.335 22.5489 30.5821 22.6604 33.7517 23.1624C34.6998 23.3111 35.5177 21.9354 33.668 21.5729C30.4984 20.9502 30.2289 21.4986 30.1638 20.1973C30.1452 19.7697 30.0616 19.5466 30.0709 19.2306C30.0894 18.4591 30.4241 16.693 30.8423 16.0982C31.0561 15.7914 31.084 15.8937 31.4837 15.7635C32.1901 15.5312 32.8501 15.085 33.194 14.4436C33.7238 14.4529 33.9934 14.6388 34.5604 14.6388C36.1219 14.6388 37.4325 13.7186 37.9809 12.6869C41.0483 13.4026 40.5371 12.3987 41.6339 13.1331C42.3031 13.5792 42.1079 13.477 42.6005 13.9231L42.898 14.2113C43.623 14.9921 44.348 16.0052 44.6176 17.1764C44.2179 17.2693 43.1768 17.6783 42.8608 17.8642C42.331 18.1709 42.015 18.6171 41.9778 19.4258C41.9034 21.0152 41.9778 22.7999 41.9778 24.4079L41.9871 24.3893ZM42.7679 11.9898C42.9166 11.7853 43.6881 11.3019 43.8461 10.7163C44.0785 10.7814 44.2829 10.9208 44.5246 11.0138C45.798 11.5064 45.2589 10.7535 46.7554 11.7109C47.3131 12.0641 48.5308 13.0401 48.5308 13.8395C48.5308 14.5645 47.9638 15.0385 47.5827 15.4289C47.0714 15.9401 46.6253 16.1446 45.9932 16.4793C45.4262 14.0347 43.0653 12.3894 42.7679 11.9898ZM43.8461 8.76439C42.7028 8.76439 43.1675 9.57306 42.2102 10.4468C40.1838 12.3058 38.046 10.9115 37.6928 10.9115C36.4472 10.9115 37.228 13.0587 34.3745 13.0587C34.0584 13.0587 33.9841 13.0215 33.7238 12.9286C32.7943 12.5939 33.8353 12.6683 32.7199 12.6683C32.2831 12.6683 32.1158 13.384 31.902 13.7093C30.7308 15.4382 27.5426 13.4398 29.2808 11.4878C30.2846 10.3631 31.6882 11.7574 32.0135 10.5119C32.2645 9.54517 32.4411 8.64356 33.7052 8.1974C35.2482 7.64899 36.0197 9.01536 36.3729 7.2586C37.0049 4.14477 41.2714 3.47553 42.805 6.31051C43.2326 7.10058 43.1304 7.22142 43.8461 7.22142C44.4781 7.22142 44.1807 6.33839 45.9003 6.33839C47.5269 6.33839 48.1125 9.3128 45.9282 9.69389C44.7198 9.90768 44.2272 8.78298 43.8461 8.78298V8.76439ZM2.63197 7.98361C2.63197 6.515 4.29578 5.83646 5.41118 6.67301C5.9317 7.0634 5.68074 7.20283 6.44293 7.20283C7.10288 7.20283 7.0657 5.51114 8.82245 4.79542C10.4491 4.13547 12.0478 4.62811 12.903 5.71563C14.0555 7.16565 13.3119 8.24387 14.5296 8.16951C15.0222 8.13233 16.4908 7.70476 17.3832 8.95029C17.755 9.48011 17.8014 9.6846 17.9688 10.4189C18.1639 11.2833 18.4893 11.0045 19.6233 11.0045C20.9617 11.0045 21.6868 12.6683 20.7573 13.8023C20.1345 14.5645 18.6287 14.4901 18.0989 13.7C17.5691 12.9193 17.9223 12.659 16.8905 12.659C16.7139 12.659 16.6303 12.7798 16.3421 12.8914C15.3847 13.2632 14.1206 12.975 13.5071 12.2314C13.1168 11.7574 13.0703 10.9022 12.2988 10.9022C12.1501 10.9022 8.84104 12.6404 7.16794 9.59165C6.76826 8.86664 6.89839 8.7551 6.15478 8.7551C5.78298 8.7551 5.29035 9.8798 4.0727 9.66601C3.23615 9.51729 2.63197 8.88523 2.63197 7.97432V7.98361ZM6.05254 5.25088C2.81787 3.54059 -0.277368 7.11917 1.68388 9.81473C1.87908 10.0843 2.16722 10.3167 2.24158 10.6234C1.23772 10.893 -0.0078125 12.6404 -0.0078125 13.7465V41.2877C-0.0078125 43.5742 4.70476 46.0746 6.34068 46.0746C7.26089 46.0746 8.00449 45.238 8.00449 44.3178V40.8973C8.00449 40.3117 7.8093 39.9213 7.22371 39.9213C6.42434 39.9213 6.43363 40.6649 6.44293 41.4829C6.45222 42.3008 6.45222 43.1188 6.45222 43.9367C6.45222 44.4851 6.51729 44.6803 6.06183 44.5316L5.21599 44.1784C3.71019 43.5463 1.49798 42.6354 1.4608 40.7114C1.42362 39.1312 1.4608 37.5046 1.4608 35.9244C1.4608 29.5109 1.4608 23.0973 1.4608 16.6837C2.49255 17.3716 5.07656 19.0075 6.44293 19.1283C6.44293 19.9184 6.3128 36.826 6.48011 37.4488C6.69389 38.2482 8.00449 38.5642 8.00449 36.7982L11.611 36.0081C18.387 34.6417 27.4868 34.4279 34.4302 35.376C36.4287 35.6456 38.2505 35.9337 40.1745 36.3706C40.7044 36.4914 41.5316 36.7889 41.9871 36.7982V44.3178C41.9871 45.3868 42.8515 46.0746 43.8461 46.0746C45.0544 46.0746 49.9994 43.6765 49.9994 41.2877V13.7465C49.9994 12.975 49.6276 12.2872 49.2465 11.8689C48.9026 11.4785 48.2705 10.7628 47.7593 10.6234C47.8429 10.3167 48.0846 10.1401 48.2798 9.8705C50.3061 7.15635 47.2109 3.522 43.9483 5.25088C43.5207 4.61882 43.0932 4.17265 42.4146 3.75438C40.1281 2.33224 37.1723 2.99219 35.6386 5.14863C35.304 5.62268 35.211 5.98518 34.96 6.515C33.6866 6.515 32.9709 6.66372 31.6789 6.47782C30.9818 6.37557 27.1801 6.10602 26.7804 6.35698C26.5295 6.5057 25.5721 7.8163 28.0167 7.78842C28.7231 7.77912 29.1135 7.87207 29.6712 7.89066C30.3776 7.90925 30.8145 7.98361 31.4279 7.98361L30.6472 9.45222C29.5875 9.45222 28.9833 9.76825 28.3978 10.233C26.5852 11.6737 27.1708 15.1222 29.2808 15.6055C29.2436 16.061 28.9833 16.6094 28.8532 17.1299C28.3792 19.0075 28.6952 19.3421 28.6952 20.978C28.0074 20.978 27.7657 21.071 27.1336 21.071C26.8734 20.5691 26.7247 20.2437 26.39 19.7604C26.2041 19.4908 26.1112 19.4258 25.9067 19.1748C24.0849 17.0184 21.1662 16.9998 19.0284 18.6264C18.7216 18.8588 18.5543 19.1097 18.2476 19.3142C17.095 18.5427 16.3607 18.0408 14.827 18.0408C13.3305 18.0408 11.9177 18.8216 11.0626 19.937C9.6776 21.7216 9.46381 22.9393 9.46381 25.2723C9.46381 25.923 9.64971 26.1833 9.65901 26.741C9.38016 26.8897 8.31123 27.4009 7.9952 27.4288V20.0021C8.00449 19.0168 7.93013 18.5149 7.40032 18.0594C6.52658 17.2879 -2.70337 15.0664 3.78455 11.4042C4.16565 11.1904 4.90925 11.2276 5.3833 11.051C5.68074 10.9394 5.88523 10.7907 6.13619 10.7256C6.47081 11.9898 8.86893 12.975 10.3375 12.975C10.9975 12.975 11.4622 12.8077 12.0013 12.6776C12.5405 13.7 13.8604 14.6295 15.4219 14.6295C15.9889 14.6295 16.2678 14.4436 16.7883 14.4344C17.6992 16.1539 20.246 16.2469 21.631 15.0757C22.6813 14.1927 22.9974 12.3523 22.3188 11.1439C21.6868 10.0378 20.7666 9.44293 19.3258 9.44293L18.545 7.97432L20.497 7.87207C21.3521 7.80701 23.9919 7.91855 24.373 7.4445C24.689 7.05411 24.6798 6.21756 23.5272 6.21756C21.7983 6.21756 20.1438 6.19897 18.3963 6.44993C16.9463 6.66372 16.4165 6.5057 15.0315 6.5057C14.7992 6.01307 14.7155 5.65986 14.3902 5.19511C13.6094 4.05182 12.2244 2.99219 10.635 2.99219C8.61796 2.99219 7.14935 3.59636 6.04324 5.24158L6.05254 5.25088Z" fill="#E7C994"/>
<path fill-rule="evenodd" clip-rule="evenodd" d="M30.4711 29.9671C30.4711 30.2645 30.3689 31.1382 31.159 31.1382C31.5586 31.1382 31.8003 30.943 31.9026 30.6084C32.5997 28.3033 30.4804 28.0616 30.4804 29.9671H30.4711Z" fill="#E7C994"/>
<path fill-rule="evenodd" clip-rule="evenodd" d="M36.8187 29.0845C37.9155 29.0845 37.6646 27.2534 37.6367 27.1976C37.4787 26.7794 37.2184 26.7422 36.9117 26.7422C36.2053 26.7422 36.1867 27.2348 36.103 27.8948C36.0379 28.4618 36.0658 29.0845 36.8094 29.0845H36.8187Z" fill="#E7C994"/>
<path fill-rule="evenodd" clip-rule="evenodd" d="M29.1041 31.1394C29.4201 31.1394 29.6153 31.0092 29.7733 30.8233C30.108 30.4422 30.0243 28.8435 29.1692 28.7227C27.9422 28.5553 28.2304 31.1301 29.1041 31.1301V31.1394Z" fill="#E7C994"/>
<path fill-rule="evenodd" clip-rule="evenodd" d="M33.9844 27.4183C33.9844 29.8164 35.5459 29.2215 35.5459 28.3943C35.5459 27.409 35.6296 26.7305 34.57 26.7305C34.2911 26.7305 33.9844 27.1394 33.9844 27.4183Z" fill="#E7C994"/>
</g>
<defs>
<clipPath id="clip0_285_77">
<rect width="50" height="43.0731" fill="white" transform="translate(0 3)"/>
</clipPath>
</defs>
</svg>
