<svg width="50" height="50" viewBox="0 0 50 50" fill="none" xmlns="http://www.w3.org/2000/svg">
<g clip-path="url(#clip0_285_92)">
<path d="M49.2852 48.9158C49.0584 49.2112 48.763 49.2955 48.3885 49.2955C32.9914 49.2903 17.5997 49.2903 2.20259 49.2903C2.09182 49.2903 1.98105 49.2956 1.87555 49.2797C1.53797 49.227 1.28478 49.0107 1.34807 48.689C1.39555 48.4674 1.64874 48.267 1.85445 48.114C1.95995 48.0349 2.15511 48.0824 2.31336 48.0824C4.90327 48.0824 7.49846 48.0824 10.0884 48.0824H10.6739V47.6076C10.6739 44.0313 10.6686 40.455 10.6791 36.884C10.6791 36.5148 10.5948 36.3829 10.1991 36.346C4.63953 35.8502 0.50411 30.4541 1.46939 24.9788C2.26061 20.5006 5.76306 17.1564 10.2413 16.7133C13.2374 16.4179 15.8801 17.3093 18.1008 19.3718C18.2115 19.4773 18.3276 19.5775 18.4647 19.7041C18.6915 19.4034 18.9289 19.1344 19.1135 18.8337C19.1821 18.7282 19.1874 18.5331 19.1399 18.4117C18.0691 15.6952 18.5122 13.2214 20.2687 10.9321C20.3689 10.8003 20.4164 10.5471 20.3636 10.3994C19.161 7.30308 20.6274 4.05381 23.4969 2.42918C24.4463 1.89116 25.4591 1.55357 26.5404 1.41643C26.6301 1.40588 26.7145 1.35841 26.7989 1.33203C27.3896 1.33203 27.9857 1.33203 28.5765 1.33203C28.6609 1.36368 28.7452 1.40588 28.8349 1.41643C30.1747 1.58522 31.3932 2.05995 32.5062 2.83007C34.9906 4.54437 36.0455 7.56154 35.0592 10.2095C34.9273 10.5629 34.9748 10.7897 35.1963 11.0851C36.8631 13.2952 37.2798 15.7005 36.2565 18.3063C36.1405 18.5964 36.188 18.781 36.3726 19.0131C37.1902 20.0153 37.7704 21.1494 38.0499 22.4206C38.1713 22.9744 38.2504 23.5336 38.3506 24.1138C38.5036 24.0663 38.6196 24.0294 38.7409 23.9872C42.5757 22.621 46.7744 24.33 48.494 28.0224C48.8738 28.84 49.0215 29.7683 49.2799 30.6492V32.0523C49.2483 32.1684 49.2061 32.2897 49.1903 32.4057C48.6364 35.6233 46.8008 37.7491 43.7203 38.7935C43.1665 38.9781 42.5757 39.0625 42.0008 39.1891V48.0771C42.1906 48.0771 42.3542 48.0771 42.523 48.0771C44.4588 48.0771 46.3946 48.0824 48.3305 48.0718C48.7155 48.0665 49.032 48.1509 49.2852 48.441V48.9105V48.9158ZM28.2916 32.5851C29.1831 32.4004 30.0217 32.295 30.8182 32.047C33.3343 31.2769 35.3387 29.8158 36.4359 27.3789C37.7335 24.5041 37.1954 21.8351 35.1857 19.4562C34.8534 19.0605 34.7532 18.7282 34.98 18.2377C36.1299 15.7638 35.7027 13.5009 33.962 11.4649C33.6244 11.0693 33.5295 10.7475 33.751 10.2517C34.6266 8.31056 34.3312 6.49603 32.9914 4.88195C31.1664 2.68237 27.8327 1.93863 25.0318 3.01996C21.925 4.21733 20.1632 7.49824 21.7351 10.489C21.8933 10.795 21.7825 11.0587 21.5663 11.3014C19.6779 13.4271 19.2296 15.7796 20.4691 18.3906C20.6326 18.7335 20.5799 19.0078 20.3425 19.2926C19.9733 19.7357 19.6357 20.1999 19.2823 20.6483C19.3456 20.759 19.3825 20.8276 19.4247 20.8909C21.2392 23.5441 21.6876 26.4136 20.7645 29.494C20.6854 29.7525 20.7592 29.8897 20.9439 30.0532C22.6898 31.5829 24.7417 32.3372 27.089 32.5112C27.089 32.3266 27.089 32.1578 27.089 31.989C27.1153 25.2479 27.1364 18.5014 27.1628 11.7603C27.1628 11.602 27.1575 11.4438 27.1786 11.2908C27.2261 10.969 27.4371 10.7422 27.7483 10.8055C27.9593 10.8477 28.1808 11.0534 28.3074 11.2486C28.4024 11.4016 28.3549 11.6442 28.3549 11.8447C28.3391 18.5594 28.318 25.269 28.2969 31.9837C28.2969 32.1525 28.2969 32.3161 28.2969 32.5903L28.2916 32.5851ZM27.0415 33.7086C24.4832 33.5398 22.1729 32.68 20.2054 31.0132C20.1474 31.0607 20.1157 31.0765 20.0999 31.1029C20.0419 31.1925 19.9839 31.2875 19.9311 31.3824C18.2274 34.2519 15.7218 35.9134 12.4145 36.3354C11.982 36.3882 11.8554 36.5095 11.8554 36.9526C11.8765 40.4761 11.866 44.005 11.866 47.5285C11.866 47.6973 11.866 47.8661 11.866 48.056H27.0415V33.7139V33.7086ZM11.8923 31.1767C12.0822 31.0079 12.2088 30.9024 12.3249 30.7916C13.0211 30.1217 13.7069 29.436 14.4137 28.7767C14.8093 28.4074 15.3948 28.5129 15.4423 28.9718C15.4686 29.2039 15.3315 29.5257 15.1627 29.6945C14.1869 30.6809 13.1741 31.6356 12.1825 32.6062C12.0717 32.7117 11.9029 32.8383 11.8976 32.9596C11.8712 33.698 11.8818 34.4365 11.8818 35.1803C16.1966 34.964 20.1579 31.2611 20.026 26.3292C19.8889 21.3234 15.5478 17.4359 10.4365 17.9106C5.89493 18.3326 2.14984 22.3151 2.57182 27.2734C3.00435 32.4479 7.50901 35.1539 10.6739 35.1433C10.6739 34.9904 10.6739 34.8374 10.6739 34.6897C10.6739 33.2391 10.6897 31.7886 10.658 30.338C10.6528 30.1112 10.5262 29.8264 10.3627 29.6628C9.43958 28.7345 8.48484 27.8325 7.54593 26.92C7.01318 26.403 6.93406 26.0971 7.25055 25.7806C7.54593 25.4852 7.86242 25.5591 8.36352 26.0443C9.02287 26.6879 9.68749 27.3261 10.3521 27.9644C10.4312 28.0382 10.5315 28.0962 10.6739 28.2017C10.6739 27.669 10.6739 27.2206 10.6739 26.767C10.6739 26.1129 10.6686 25.4588 10.6791 24.7995C10.6844 24.4355 10.869 24.2035 11.2488 24.1929C11.6286 24.1771 11.8132 24.4092 11.8554 24.7679C11.8712 24.9208 11.8712 25.0791 11.8712 25.2373C11.8712 27.0307 11.8712 28.8294 11.8712 30.6228C11.8712 30.7864 11.8871 30.9499 11.8976 31.1925L11.8923 31.1767ZM28.2705 48.0507H40.7506V39.1891C36.7102 38.5561 34.2943 36.251 33.5084 32.1895C31.8837 33.1178 30.1431 33.582 28.2705 33.7086V48.0507ZM41.9744 37.9284C45.1709 37.7016 47.8399 35.022 48.0509 31.8571C48.3938 26.7459 43.1348 23.1696 38.5141 25.3797C38.3664 25.4536 38.2082 25.6487 38.1765 25.8123C37.7704 27.996 36.6469 29.7314 34.9853 31.1662C34.8429 31.2927 34.7321 31.5618 34.7479 31.7569C34.8745 33.8668 35.8398 35.5284 37.5436 36.7574C38.493 37.4431 39.5533 37.8335 40.7665 37.9337C40.7665 37.7227 40.7665 37.5486 40.7665 37.3798C40.7665 35.0378 40.7665 32.6958 40.7665 30.3591C40.7665 30.1903 40.719 29.9688 40.8034 29.858C40.9564 29.6576 41.199 29.3886 41.3942 29.3991C41.5893 29.4097 41.795 29.705 41.948 29.9108C42.0166 30.0004 41.9691 30.185 41.9691 30.3222C41.9691 31.6303 41.9691 32.9437 41.9691 34.2572C41.9691 34.3679 41.9902 34.4787 42.006 34.5948C42.0641 34.6317 42.1168 34.6739 42.1748 34.7161C42.6654 34.1675 43.1401 33.6084 43.6465 33.0809C43.9893 32.7222 44.3691 32.6958 44.6276 32.9596C44.8861 33.2233 44.8386 33.582 44.4746 33.9354C43.7256 34.6686 42.9713 35.3912 42.2276 36.1244C42.1221 36.2299 41.9902 36.3671 41.9849 36.4937C41.9533 36.9737 41.9744 37.4537 41.9744 37.939H41.9797L41.9744 37.9284Z" fill="#E7C994" stroke="#E7C994" stroke-width="0.664621" stroke-miterlimit="22.9256"/>
</g>
<defs>
<clipPath id="clip0_285_92">
<rect width="48.6229" height="48.6304" fill="white" transform="translate(1 1)"/>
</clipPath>
</defs>
</svg>
