<svg width="50" height="50" viewBox="0 0 50 50" fill="none" xmlns="http://www.w3.org/2000/svg">
<g clip-path="url(#clip0_285_101)">
<path d="M1.80642e-05 28.5933C0.130154 27.6266 0.223108 26.6599 0.390425 25.7025C1.31067 20.4412 3.70889 15.9516 7.50141 12.2148C10.3551 9.4076 13.6922 7.39979 17.5219 6.19139C17.7542 6.11703 17.9959 5.9683 18.1725 5.79169C22.0952 2.06423 27.8955 2.06423 31.8182 5.79169C32.0134 5.9776 32.2644 6.11703 32.5154 6.20069C38.8827 8.28286 43.6884 12.2613 46.9511 18.0988C48.6894 21.2035 49.6561 24.5591 49.8978 28.1193C49.9628 29.1046 49.9814 30.0992 49.9907 31.0938C50 35.9739 49.9907 40.854 49.9907 45.7433C49.9907 46.8402 49.6933 47.147 48.6057 47.147C44.6552 47.147 40.6953 47.147 36.7448 47.147C35.6479 47.147 35.3412 46.8402 35.3412 45.7619C35.3412 40.5844 35.3412 35.4162 35.3412 30.2386C35.3412 27.9891 34.737 25.9348 33.4263 24.1036C33.3148 23.9549 33.0731 23.8155 32.8872 23.8155C27.6167 23.7969 22.3462 23.7969 17.0757 23.8155C16.8991 23.8155 16.6481 23.9549 16.5458 24.1129C15.2445 25.9441 14.6403 27.9984 14.6403 30.2479C14.6496 35.4533 14.6403 40.6588 14.6403 45.8735C14.6403 46.0222 14.6496 46.1709 14.631 46.3104C14.5752 46.803 14.3149 47.0726 13.8223 47.1284C13.6457 47.147 13.4691 47.147 13.2832 47.147C9.31402 47.147 5.34488 47.1377 1.37574 47.1563C0.771537 47.1563 0.297471 47.0075 -0.00927734 46.4684C-0.00927734 40.51 -0.00927734 34.5517 -0.00927734 28.5933H1.80642e-05ZM17.2802 17.9129H32.8128C32.8128 16.2118 32.8221 14.5387 32.8128 12.8655C32.8035 10.4766 31.939 8.44088 30.1078 6.88855C27.7747 4.89933 25.0883 4.39738 22.2253 5.49423C19.4274 6.56321 17.6613 8.66397 17.3267 11.6478C17.0943 13.7021 17.2802 15.8028 17.2802 17.9129ZM15.2352 13.6463C15.1144 13.6928 15.0679 13.7114 15.0307 13.73C10.3365 16.6952 7.38987 20.8781 6.22794 26.3159C5.77247 28.4353 5.85613 30.5825 5.85613 32.7298C5.85613 33.5292 5.67022 34.3937 5.93049 35.1001C6.19076 35.8251 6.89721 36.3829 7.40846 37.015C7.67803 37.3403 7.95689 37.6656 8.30082 38.0746C8.30082 35.3511 8.30082 32.767 8.30082 30.1828C8.30082 27.9798 8.69122 25.8512 9.51852 23.8062C10.6711 20.9897 12.4559 18.6565 14.8634 16.7882C15.0214 16.6673 15.2073 16.4535 15.2166 16.2769C15.2538 15.4217 15.2352 14.5573 15.2352 13.637V13.6463ZM41.6992 38.1025C42.5358 37.0893 43.2794 36.1877 44.0138 35.286C44.0881 35.1931 44.1346 35.0536 44.1346 34.9328C44.116 32.7577 44.2276 30.5639 44.0231 28.3981C43.4468 22.0772 40.3607 17.2343 35.0437 13.7857C34.9693 13.7393 34.8764 13.7114 34.7648 13.6556C34.7648 14.455 34.7834 15.1986 34.7555 15.9423C34.737 16.3513 34.8671 16.6115 35.2017 16.8718C37.5256 18.6472 39.2452 20.8967 40.3886 23.5924C41.2809 25.7024 41.6992 27.9055 41.6992 30.1921C41.6992 32.7763 41.6992 35.3604 41.6992 38.1025ZM11.5914 45.1763C8.37518 41.263 5.21474 37.424 1.98924 33.5013V45.1763H11.5914ZM38.4179 45.167H48.0201V33.492C44.7946 37.4147 41.6434 41.2444 38.4179 45.167ZM15.2352 19.0376C15.0772 19.1864 14.9842 19.2607 14.8913 19.3444C11.8052 22.3189 10.2807 25.972 10.2621 30.2386C10.2436 33.083 10.3179 35.9367 10.2343 38.7811C10.1971 39.9802 10.4388 40.9469 11.3218 41.7835C11.8052 42.239 12.1863 42.806 12.6975 43.4288V42.7502C12.6975 38.6231 12.7068 34.4866 12.6975 30.3594C12.6883 27.608 13.4226 25.1075 15.0307 22.8581C15.1236 22.7279 15.2259 22.5699 15.2259 22.4305C15.2445 21.3336 15.2352 20.2275 15.2352 19.0376ZM37.3025 43.2708C37.3397 43.2801 37.3676 43.2987 37.4047 43.308C38.1391 42.4156 38.8827 41.5325 39.5985 40.6309C39.7007 40.5007 39.7379 40.2777 39.7379 40.0917C39.7472 36.7733 39.7565 33.4548 39.7379 30.1364C39.7286 26.883 38.7805 23.927 36.847 21.3057C36.2521 20.5063 35.5457 19.7999 34.8857 19.0469L34.7555 19.1213C34.7555 20.2182 34.7463 21.3243 34.7648 22.4212C34.7648 22.5699 34.8671 22.7279 34.96 22.8488C36.5682 25.089 37.3025 27.5987 37.2932 30.3502C37.2746 34.4773 37.2932 38.6138 37.2932 42.7409V43.2615L37.3025 43.2708ZM16.0067 8.77551C14.9656 9.33324 13.9524 9.78871 13.0322 10.3743C6.26512 14.7153 2.54696 20.8781 1.97064 28.928C1.91487 29.6809 2.03571 30.313 2.53766 30.8986C3.00243 31.4377 3.39284 32.0512 3.81114 32.6368C3.90409 31.5493 3.8855 30.5175 3.91339 29.4764C4.02493 25.7396 5.02883 22.2631 6.98087 19.0841C8.9515 15.8679 11.61 13.3674 14.9006 11.527C15.0958 11.4154 15.3189 11.2388 15.3839 11.0436C15.607 10.3557 15.7743 9.63999 15.9974 8.78481L16.0067 8.77551ZM46.0867 32.5811L46.1889 32.6182C46.7745 31.8002 47.3694 30.9915 47.9457 30.1735C48.0201 30.0713 48.0387 29.904 48.0294 29.7645C47.9829 26.8923 47.4624 24.1036 46.3655 21.4452C44.1997 16.1932 40.5745 12.252 35.5642 9.57492C35.0623 9.30535 34.5418 9.09156 34.0026 8.83129C34.2164 9.6214 34.3837 10.3278 34.5975 11.025C34.644 11.1923 34.802 11.3503 34.9507 11.4433C35.5921 11.8523 36.2707 12.2055 36.8935 12.6517C42.731 16.7975 45.7985 22.4491 46.0681 29.6065C46.1052 30.5918 46.0774 31.5864 46.0774 32.5811H46.0867ZM17.2151 21.8077H32.7756V19.9114H17.2151V21.8077Z" fill="#E7C994"/>
<path d="M24.9677 47.1452C22.6066 47.1452 20.2456 47.1452 17.8938 47.1452C16.9364 47.1452 16.6111 46.8105 16.6018 45.8438C16.6018 44.7191 16.5925 43.5943 16.6018 42.4789C16.6111 41.6516 16.9736 41.2891 17.8009 41.2891C22.5973 41.2891 27.4031 41.2891 32.1995 41.2891C33.0268 41.2891 33.38 41.6609 33.3893 42.4882C33.3986 43.6408 33.3986 44.8027 33.3893 45.9554C33.38 46.7826 33.0175 47.1452 32.1902 47.1452C29.7827 47.1545 27.3752 47.1452 24.9677 47.1452ZM18.5724 45.156H31.4001V43.2597H18.5724V45.156Z" fill="#E7C994"/>
<path d="M24.9492 39.5241C23.1087 39.5241 21.2682 39.5241 19.437 39.5241C18.5075 39.5241 18.1729 39.1801 18.1636 38.2506C18.1636 37.1259 18.1636 36.0011 18.1636 34.8857C18.1636 34.0212 18.5168 33.668 19.3813 33.668C23.1273 33.668 26.8641 33.668 30.6101 33.668C31.4746 33.668 31.8278 34.0212 31.8278 34.8857C31.8371 36.029 31.8371 37.163 31.8278 38.3064C31.8278 39.1708 31.4746 39.5241 30.6101 39.5241C28.7232 39.5241 26.8362 39.5241 24.9492 39.5241ZM29.8572 35.6479H20.1528V37.5442H29.8572V35.6479Z" fill="#E7C994"/>
<path d="M25.0419 25.758C26.2503 25.758 27.4494 25.758 28.6578 25.758C29.5223 25.758 29.8755 26.1113 29.8755 26.9757C29.8848 28.1191 29.8848 29.2531 29.8755 30.3964C29.8755 31.2609 29.5223 31.6141 28.6578 31.6141C26.2132 31.6141 23.7778 31.6141 21.3331 31.6141C20.4686 31.6141 20.1154 31.2609 20.1154 30.3964C20.1061 29.2531 20.1061 28.1191 20.1154 26.9757C20.1154 26.1113 20.4686 25.758 21.3331 25.758C22.5694 25.7487 23.8056 25.758 25.0419 25.758ZM27.9049 27.7473H22.1046V29.6435H27.9049V27.7473Z" fill="#E7C994"/>
</g>
<defs>
<clipPath id="clip0_285_101">
<rect width="50" height="44.1587" fill="white" transform="translate(0 3)"/>
</clipPath>
</defs>
</svg>
