<svg width="50" height="50" viewBox="0 0 50 50" fill="none" xmlns="http://www.w3.org/2000/svg">
<g clip-path="url(#clip0_285_102)">
<path d="M1.00146 12.2323C1.17513 11.8253 1.48991 11.5865 1.8861 11.402C9.13139 8.04254 16.3712 4.68311 23.6057 1.29655C24.4306 0.911219 25.185 0.894937 26.0045 1.28569C28.2568 2.35485 30.5199 3.39144 32.7776 4.44432C32.9459 4.5203 33.1195 4.59628 33.2661 4.70482C33.5266 4.9002 33.6188 5.17156 33.4994 5.48633C33.3692 5.81739 33.1141 5.96935 32.7668 5.92051C32.604 5.8988 32.4411 5.82282 32.2892 5.75227C29.9989 4.69397 27.7086 3.63566 25.4292 2.55566C25.0005 2.34942 24.6314 2.35485 24.1972 2.55566C17.9994 5.45377 11.7961 8.33561 5.59829 11.2174C5.42462 11.2988 5.25638 11.3911 5.10442 11.5431H44.5058C44.5221 11.5214 44.5329 11.5051 44.5492 11.4834C44.4189 11.4128 44.2833 11.3368 44.1476 11.2771C41.3851 9.9909 38.6227 8.70465 35.8603 7.41841C35.7626 7.37499 35.6595 7.337 35.5672 7.28273C35.1764 7.07107 35.0408 6.70745 35.2036 6.35468C35.3718 5.99649 35.7409 5.84996 36.1425 6.02363C36.6418 6.23529 37.1302 6.47408 37.6187 6.70202C40.9835 8.27048 44.3484 9.84436 47.7241 11.3911C48.3753 11.6896 48.6901 12.1238 48.6196 12.8402C48.5816 13.2526 48.6087 13.6814 48.5219 14.083C48.2885 15.1142 47.4039 15.8902 46.3564 15.9608C45.461 16.0205 44.56 15.9988 43.6591 16.0042C41.9876 16.0096 40.3106 16.0042 38.639 16.0042C37.5481 16.0042 37.2279 15.8902 36.3487 15.2173C35.6866 15.9065 34.8345 16.0096 33.9173 15.9988C31.7465 15.9771 29.5756 15.9988 27.4101 15.9825C26.7969 15.9771 26.189 15.9065 25.5432 15.8631V41.1375C25.7603 41.1375 25.9665 41.1321 26.1782 41.1375C26.9705 41.1538 27.383 41.55 27.3884 42.3423C27.3993 43.6883 27.3939 45.0396 27.3939 46.3856C27.3939 46.5701 27.3939 46.7546 27.3939 46.9826H30.026C30.368 44.2364 30.7099 41.4957 31.0464 38.7604C29.7221 37.9843 29.5159 36.5841 30.5633 35.2816C30.851 34.9234 30.9107 34.6086 30.8618 34.1907C30.585 31.9493 30.3517 29.697 30.0586 27.4556C29.7275 24.9374 31.4425 22.8533 33.9825 22.8099C36.1208 22.7719 38.2591 22.7828 40.3974 22.8045C42.9916 22.8316 44.7229 24.8234 44.4244 27.4013C44.1584 29.6482 43.8979 31.895 43.6211 34.1364C43.5777 34.5055 43.6157 34.7986 43.9088 35.0916C44.4515 35.6398 44.6957 36.3453 44.7174 37.116C44.7337 37.7564 44.4678 38.272 43.8925 38.565C43.6266 38.7007 43.5831 38.8527 43.6157 39.1077C43.9142 41.4577 44.2018 43.8131 44.5003 46.1631C44.5329 46.4399 44.5763 46.7112 44.6143 47.0206C45.6183 47.0206 46.5898 47.0206 47.5667 47.0206C47.7349 47.0206 47.914 47.0151 48.0769 47.0531C48.4568 47.1454 48.6684 47.4059 48.625 47.8021C48.5816 48.1657 48.3536 48.3828 47.9737 48.4099C47.8489 48.4208 47.7241 48.4154 47.6047 48.4154C32.414 48.4154 17.2287 48.4154 2.03806 48.4208C1.59846 48.4208 1.24026 48.3502 1.02317 47.9378V47.471C1.26197 47.1183 1.59303 47.0097 2.01635 47.0097C4.2035 47.026 6.38523 47.0151 8.57239 47.0151C8.7352 47.0151 8.90344 47.0151 9.10968 47.0151C9.10968 46.7926 9.10968 46.6244 9.10968 46.4561C9.10968 44.4861 9.10968 42.5214 9.10968 40.5514C9.10968 39.5419 9.6741 38.9721 10.6836 38.9449C10.9875 38.9395 11.2914 38.9449 11.6116 38.9449V33.9248C11.5139 33.9085 11.4379 33.8922 11.362 33.8814C8.12736 33.2735 6.03789 30.5599 6.3201 27.2819C6.4992 25.1816 7.21559 23.2441 8.24676 21.4151C8.77862 20.4762 9.42445 19.6296 10.2982 18.9837C11.5953 18.0231 13.0227 17.958 14.2872 18.9457C14.9602 19.4722 15.5626 20.1289 16.051 20.8344C17.2559 22.5765 17.956 24.5466 18.2979 26.6306C18.6887 29.0186 18.0103 31.0429 16.1325 32.6114C15.2478 33.3549 14.2004 33.7511 13.0661 33.9193V38.9449C13.4569 38.9449 13.8096 38.9232 14.1624 38.9503C14.9982 39.01 15.53 39.5528 15.568 40.3886C15.5843 40.7902 15.5789 41.1972 15.5735 41.5988C15.5626 42.1144 15.3075 42.4237 14.8951 42.4346C14.4717 42.4455 14.1949 42.1253 14.1841 41.588C14.1732 41.1918 14.1841 40.7902 14.1841 40.3723H10.537V46.9826H14.1841C14.1841 46.3205 14.1678 45.6909 14.1895 45.0614C14.2058 44.5566 14.5531 44.231 14.9819 44.3124C15.3998 44.3884 15.5735 44.676 15.5735 45.0831C15.5735 45.7126 15.5735 46.3476 15.5735 46.9826H22.2543C22.2543 46.7872 22.2543 46.619 22.2543 46.4507C22.2543 45.0885 22.2489 43.7263 22.2543 42.3586C22.2597 41.55 22.6614 41.1484 23.4429 41.1267C23.6545 41.1212 23.8662 41.1267 24.0887 41.1267V15.8468C23.5134 15.8957 22.9816 15.9717 22.4443 15.9771C20.2571 15.9934 18.0754 15.9662 15.8882 15.9879C14.9222 15.9988 13.9941 15.9499 13.2723 15.1901C12.697 15.7654 12.0241 15.9934 11.2643 15.9934C8.75148 15.9934 6.24412 15.9988 3.73134 15.9934C2.56992 15.9934 1.71243 15.4832 1.21855 14.4086C1.14257 14.2404 1.08287 14.0667 1.02317 13.893C1.02317 13.334 1.02317 12.775 1.02317 12.2215L1.00146 12.2323ZM42.1884 34.0333C42.2155 33.9519 42.2481 33.8814 42.2535 33.8054C42.5194 31.5422 42.8179 29.2845 43.0241 27.0214C43.1761 25.3661 42.0473 24.221 40.3594 24.2101C38.2808 24.1938 36.2076 24.1993 34.129 24.2101C32.2892 24.221 31.1929 25.5235 31.4371 27.3525C31.5999 28.5953 31.7302 29.8435 31.8767 31.0918C31.9961 32.085 32.1155 33.0781 32.2295 34.0387H42.1829L42.1884 34.0333ZM13.0064 29.1651C13.0552 29.1977 13.1095 29.2303 13.1584 29.2628C13.3483 29.0403 13.522 28.8015 13.7336 28.5953C14.0864 28.2479 14.5097 28.2317 14.7974 28.5356C15.0687 28.8178 15.047 29.2303 14.7214 29.5722C14.3469 29.9629 13.9996 30.3971 13.5654 30.7119C12.9033 31.1949 12.9738 31.819 13.0444 32.4866C15.2044 32.3075 17.0876 30.1583 16.9791 27.8518C16.8597 25.263 15.9642 22.913 14.3361 20.8941C12.9738 19.2008 11.617 19.2497 10.2385 20.9538C9.23993 22.1858 8.60495 23.6077 8.14907 25.1165C7.80715 26.2345 7.56836 27.3633 7.69861 28.5464C7.9157 30.5165 9.69581 32.3238 11.617 32.492C11.617 31.4717 11.6225 30.4514 11.6062 29.4311C11.6062 29.3171 11.4868 29.1868 11.3999 29.0946C10.9115 28.5953 10.4122 28.1123 9.92375 27.613C9.57642 27.2548 9.56556 26.8423 9.87491 26.5492C10.168 26.2724 10.5533 26.305 10.9061 26.6306C11.1232 26.8369 11.3348 27.0485 11.617 27.3253C11.617 26.9074 11.617 26.6144 11.617 26.3213C11.6225 25.7352 11.8721 25.4258 12.3334 25.4367C12.773 25.4421 13.0064 25.7352 13.0118 26.305C13.0172 27.2602 13.0118 28.2154 13.0118 29.176L13.0064 29.1651ZM33.7437 47.0043H40.8478C40.6036 45.0451 40.3703 43.1239 40.126 41.1809H34.4655C34.2267 43.1184 33.9879 45.0342 33.7437 47.0043ZM37.2659 37.3873C39.122 37.3873 40.9835 37.3819 42.845 37.3927C43.2521 37.3927 43.3661 37.2516 43.2792 36.8663C43.0947 36.0359 42.4217 35.4064 41.5859 35.401C38.7204 35.3847 35.8548 35.3847 32.9893 35.401C32.2132 35.4064 31.5348 36.0034 31.3448 36.7523C31.2092 37.2842 31.2851 37.3873 31.8333 37.3873C33.646 37.3873 35.4587 37.3873 37.2713 37.3873H37.2659ZM47.1922 12.9976H37.1031C36.9783 14.1047 37.4124 14.6094 38.487 14.6094C40.9184 14.6149 43.3498 14.6149 45.7812 14.6094C46.8557 14.6094 47.2791 14.121 47.1922 12.9976ZM2.42339 12.9867C2.33655 14.0504 2.73274 14.5986 3.6445 14.604C6.20071 14.6257 8.75691 14.6257 11.3131 14.604C12.252 14.5931 12.7079 13.9202 12.4745 12.9867H2.42339ZM24.0724 12.9976H13.9833C13.8422 14.0504 14.3035 14.5986 15.3238 14.5986C17.7877 14.604 20.2463 14.604 22.7102 14.5986C23.7468 14.5986 24.181 14.0938 24.067 12.9976H24.0724ZM25.5378 12.9976C25.4292 14.0993 25.858 14.5986 26.9 14.5986C29.3639 14.604 31.8224 14.604 34.2864 14.5986C35.3067 14.5986 35.768 14.0396 35.6215 12.9976H25.5378ZM23.6491 42.554V47.0043H25.9502V42.554H23.6491ZM32.4357 38.8038C32.0938 41.5445 31.7573 44.2636 31.4208 47.0097H32.338C32.6745 44.269 33.0164 41.55 33.3529 38.8038H32.4357ZM41.2386 38.8309C41.5751 41.5663 41.917 44.2798 42.2481 46.988H43.1653C42.8505 44.4535 42.5466 41.9679 42.2318 39.4822C42.1341 38.717 42.1178 38.717 41.2332 38.8255L41.2386 38.8309ZM34.6446 39.7319H39.9415C39.9198 39.5745 39.8818 39.4496 39.8927 39.3302C39.9415 38.8364 39.681 38.7604 39.2523 38.7713C37.9226 38.7984 36.5984 38.7821 35.2687 38.7821C35.1059 38.7821 34.9431 38.7984 34.7694 38.8038C34.726 39.1349 34.688 39.4225 34.65 39.7319H34.6446Z" fill="#E7C994"/>
</g>
<defs>
<clipPath id="clip0_285_102">
<rect width="47.6262" height="47.4282" fill="white" transform="translate(1 1)"/>
</clipPath>
</defs>
</svg>
