<svg width="50" height="50" viewBox="0 0 50 50" fill="none" xmlns="http://www.w3.org/2000/svg">
<g clip-path="url(#clip0_285_103)">
<path fill-rule="evenodd" clip-rule="evenodd" d="M1.46873 45.9438V44.7745C9.39899 44.7745 17.0479 44.6778 25.0045 44.6778L42.685 44.5811C44.7598 44.5811 46.5182 44.4844 48.5403 44.4844V45.7504C32.7765 45.7504 17.2413 45.9438 1.46873 45.9438ZM0.000491079 46.1372V44.6163C0.0532422 44.1327 0.237871 43.7722 0.782967 43.403C0.70384 43.0513 0.56317 42.8755 0.46646 42.4535C-0.19293 39.6313 2.02262 37.4948 3.90408 37.4509C3.90408 36.2552 5.16131 31.1999 7.42082 31.1999C7.95712 31.1999 8.07142 31.3933 8.49343 31.49V22.9004C8.53739 22.6014 8.78356 22.3113 9.07369 22.3113C10.243 22.3113 9.95288 23.3751 9.95288 25.1423H21.1801V16.4471H9.95288V20.254C9.95288 20.4914 9.6012 20.8431 9.36382 20.8431C8.18571 20.8431 8.38793 19.9199 8.38793 18.4956H3.79858C2.78751 18.4956 1.62699 17.8099 1.13464 17.256C-1.45896 14.3283 1.15223 9.59827 5.31957 10.3368C6.07567 10.4687 7.07794 10.9698 7.41203 11.4709C8.55497 10.9258 10.076 11.5237 11.0255 12.1567L13.9795 8.36741C14.3136 7.99815 14.7532 7.66406 15.4214 7.66406C16.8809 7.66406 17.1446 8.56083 17.9359 9.44881L22.4637 15.0844C22.9121 15.7174 22.7538 19.0231 22.7538 19.876C24.7232 19.876 26.3497 19.7792 28.3191 19.7792C28.9521 19.7792 29.7873 19.6913 29.7873 20.5617C29.7873 21.5288 28.829 21.3442 27.8355 21.3442C27.8443 21.7838 27.9322 21.731 27.9322 22.2234V24.6675C28.8466 24.6675 29.3389 24.6939 30.2181 25.1159C31.449 25.7138 32.8381 27.8238 33.0139 28.5711H33.2073C33.2073 27.7095 33.77 26.5578 34.1217 25.9775C36.7241 21.6607 42.5531 20.9046 46.2193 24.5444C47.1776 25.5027 47.9513 26.9007 48.2414 28.2898C48.5491 29.802 48.47 29.8723 48.3469 31.3142C49.1118 31.6834 50.0086 31.446 50.0086 32.6857V45.9702C50.0086 46.401 49.6657 46.8142 49.3844 47.0076C48.9536 47.3066 48.6195 47.245 47.9513 47.2362C47.2655 47.2274 47.0282 47.3417 46.3951 47.3417H31.449C29.2246 47.3417 27.2728 47.4384 25.0045 47.4384C20.5734 47.4384 16.1511 47.4384 11.72 47.4384C10.5419 47.4384 9.7067 47.5352 8.49343 47.5352C7.38565 47.5352 6.27788 47.5352 5.17011 47.5352C3.85133 47.5352 1.24894 47.7637 0.536795 47.1835C0.264247 46.9549 -0.00830078 46.6032 -0.00830078 46.1636L0.000491079 46.1372ZM30.0774 43.1128H24.9958C25.0221 42.0402 26.1299 40.827 26.8245 40.1588C28.2399 38.7785 30.7544 38.4883 32.6447 39.1829C32.9524 39.2972 33.1722 39.2972 33.3568 39.5433L35.4405 43.0249C33.5414 43.0249 31.9765 43.1216 30.0687 43.1216L30.0774 43.1128ZM41.5069 40.8709H46.1929V42.0402C46.1929 42.5326 46.2808 42.4798 46.2896 42.9194H41.5069V40.8709ZM18.9469 40.8709V29.4415H21.2944V43.1128H19.0525C19.0525 42.2424 18.9557 41.7589 18.9557 40.8709H18.9469ZM1.85557 41.46C1.85557 39.5785 4.00958 38.0136 6.02292 39.5433C6.3658 39.7983 6.75264 40.6775 7.13069 40.6775C7.81645 40.6775 8.48464 40.0181 9.54845 40.994C9.98804 41.3984 10.2166 41.2666 10.7793 41.1874C12.5025 40.9325 12.7575 43.2183 12.019 43.2183H2.74355C2.29517 43.2183 1.86437 42.1633 1.86437 41.46H1.85557ZM13.5751 40.8709V38.7257H17.4787V43.1216H15.1313C14.5334 43.1216 14.4191 43.2183 13.8653 43.2183C13.8653 41.1874 13.5751 41.5655 13.5751 40.8709ZM41.4102 37.5476C44.0829 37.5476 47.371 34.8573 47.8546 32.7648C48.092 32.8176 48.2502 32.8703 48.4436 32.9582C48.4436 34.6551 48.4436 36.3431 48.4436 38.0399C48.4436 39.8071 48.5403 41.2402 48.5403 43.0249H47.7579C47.7579 38.884 48.0656 39.4115 45.7094 39.4115H41.5069C41.5069 38.6466 41.4102 38.3037 41.4102 37.5564V37.5476ZM7.42082 32.7648C8.12417 32.7648 8.81873 34.8309 9.04732 35.5343C9.38141 36.5541 9.66275 38.0136 9.76825 39.2093C8.77477 38.9807 8.56376 38.7697 7.52632 39.0158C7.1219 38.2597 6.21634 37.7498 5.38111 37.5476C5.43386 37.4421 6.33063 32.7648 7.42961 32.7648H7.42082ZM38.2803 37.2575C38.8693 37.2663 39.3177 37.5388 39.9419 37.5476V39.2093C39.4847 38.9631 39.2649 38.8752 38.9484 38.4444C38.799 38.2422 38.3418 37.4861 38.2803 37.2575ZM14.4543 37.2575H13.5751V35.6925L17.1886 35.5958C17.6282 35.5958 17.4787 36.0969 17.4787 37.1608C16.3534 37.1608 15.5885 37.2575 14.4543 37.2575ZM13.5751 32.5714H17.382V34.1364H13.5751V32.5714ZM10.0584 33.5473V29.4415H12.0102V34.4265C12.0102 36.3343 12.1069 37.8993 12.1069 39.7983C11.7288 39.7631 11.7904 39.7016 11.3244 39.7016C11.1486 37.6267 10.9464 36.7563 10.4628 34.9892C10.3221 34.488 10.0496 34.0309 10.0496 33.5473H10.0584ZM22.7538 29.7404C24.4419 29.7404 26.5783 29.4767 27.5981 30.1712C28.1257 30.5317 30.4027 34.5232 30.8511 35.3145C31.2643 36.0354 31.6776 36.7915 32.1259 37.4597C29.0048 36.73 25.8574 38.2597 24.3539 40.7215C24.0023 41.3017 23.4572 42.2776 23.4308 43.1216H22.8417V35.3057C22.8417 33.3363 22.745 31.701 22.745 29.7404H22.7538ZM13.5751 29.4503H17.382V31.0152H13.5751V29.4503ZM22.7538 26.127C24.2484 26.127 28.2575 25.9423 29.3301 26.3907C30.4995 26.8831 30.939 27.9645 31.6072 29.0898L37.8143 39.4818C38.3066 40.0621 39.1682 40.7127 39.9331 40.7742V42.9194C38.6671 42.9194 37.3219 43.0601 36.434 41.7325C36.1966 41.3808 36.0295 41.0819 35.8009 40.7039L33.8755 37.4597C32.9084 35.8508 29.5851 29.7932 28.6092 29.0547C27.0267 27.8502 25.1276 28.1755 22.745 28.1755V26.127H22.7538ZM39.8452 29.0547L39.9419 31.5955C39.4056 31.4548 39.1946 30.7163 38.6759 30.7163C38.1308 30.7163 37.8934 31.0504 37.8934 31.4988C37.8934 32.3516 39.9419 33.4682 39.9419 34.0396V35.9914C38.8253 35.9914 36.9703 35.1474 36.3197 34.0484C35.2031 32.1494 34.5701 31.701 34.5701 29.7404C34.5701 28.0172 35.3789 26.5314 36.2493 25.661C40.4606 21.4937 46.8699 24.7994 46.8699 29.547C46.8699 31.6307 46.4567 32.6857 45.2258 34.1539C44.5225 34.9892 42.685 35.9914 41.4014 35.9914C41.4014 31.1471 40.9706 32.334 42.8872 30.4526C43.907 29.4415 43.529 28.7645 42.5707 28.7645C42.2366 28.7645 41.6827 29.547 41.4014 29.7404C41.4014 28.9052 41.5069 28.3425 40.9002 28.0788C40.2848 27.815 39.8364 28.3425 39.8364 29.0547H39.8452ZM9.96167 27.9821V26.716L21.2944 26.6193V27.8853L9.96167 27.9821ZM22.7538 21.3442H23.8264V24.6675H22.7538V21.3442ZM25.2947 24.3686V21.3442H26.3673V24.6675H25.5848C25.3562 24.6675 25.2947 24.5972 25.2947 24.3774V24.3686ZM10.7441 14.9965C11.0782 14.4953 11.4739 14.0645 11.8431 13.5634L14.7181 9.89719C15.3511 9.12351 15.5533 8.88613 16.2918 9.83565C16.4852 10.0818 16.6523 10.284 16.8633 10.539L20.3097 14.8998C17.0039 14.8998 14.0147 14.9965 10.7354 14.9965H10.7441ZM8.39672 15.9724V16.9483C7.16586 16.9483 4.51072 17.0977 3.7722 16.9834C0.46646 16.4383 1.26652 11.7787 4.48434 11.7787C5.2844 11.7787 6.00533 12.1567 6.41855 12.5787C7.41203 13.5986 6.86693 12.8513 8.78356 12.8513C9.36382 12.8513 9.70671 13.1062 10.0496 13.3436C9.75946 13.7744 9.46932 14.1437 9.12644 14.5745C8.79235 15.0053 8.38793 15.2866 8.38793 15.9812L8.39672 15.9724Z" fill="#E7C994"/>
<path fill-rule="evenodd" clip-rule="evenodd" d="M26.8599 9.03611C26.8599 10.434 27.9764 11.4803 29.1106 11.4803H33.2164C33.8142 11.4803 34.2538 10.8824 33.9637 10.3549C33.6648 9.8098 32.9262 9.9153 32.1438 9.92409L29.0139 9.93289C27.9149 9.62517 28.4336 7.72613 29.6996 7.38324C31.1679 6.98761 30.5173 7.47996 31.1151 5.95896C31.3525 5.36112 31.7833 4.68414 32.2493 4.35884C33.4538 3.50603 34.9308 3.28624 36.2847 3.94563C37.1024 4.34126 37.6123 4.97428 37.9816 5.76554C38.2014 6.2403 38.1574 6.72386 38.4651 7.04036C39.1597 7.74371 39.6872 6.63594 40.8917 8.12176C41.2521 8.57015 41.4544 8.57894 42.2017 8.57015C42.7907 8.56135 43.371 8.57015 43.96 8.57015C44.2238 8.96578 44.2502 8.69323 44.2502 9.35262C44.2502 9.66913 43.8545 9.89772 43.5644 9.93289C43.2303 9.97684 42.5709 9.94168 42.2017 9.94168C41.3928 9.94168 36.0913 9.88013 35.6957 9.97684C34.7462 10.223 34.9308 11.5066 35.9506 11.5066L43.371 11.4099C46.6679 11.4275 46.4569 7.06674 43.5644 7.00519C42.2808 6.97882 42.1225 7.2162 41.6302 6.69748C40.5048 5.51058 39.8191 6.20514 39.4674 5.44024C38.8432 4.07751 38.1838 3.1104 36.6012 2.44222C33.7175 1.22894 30.5788 2.81148 29.682 5.44024C29.4886 6.02051 29.7436 5.74796 29.0139 6.03809C27.8182 6.49527 26.8599 7.70854 26.8599 9.06249V9.03611Z" fill="#E7C994"/>
<path fill-rule="evenodd" clip-rule="evenodd" d="M15.7203 22.4088C14.6038 22.4088 13.8652 21.6 13.8652 20.9406V20.3515C13.8652 19.6746 14.6653 18.8833 15.3335 18.8833C15.8962 18.8833 16.4501 18.8833 16.916 19.446C18.059 20.8263 16.8457 22.4 15.7203 22.4V22.4088ZM12.3003 20.5538C12.3003 22.5583 13.8213 23.8947 15.5357 23.9298C17.3204 23.9738 18.8414 22.6198 18.8414 20.457C18.8414 18.7778 17.2853 17.3359 15.6148 17.3359C13.8389 17.3359 12.2915 18.7954 12.2915 20.5626L12.3003 20.5538Z" fill="#E7C994"/>
</g>
<defs>
<clipPath id="clip0_285_103">
<rect width="50" height="45.5506" fill="white" transform="translate(0 2)"/>
</clipPath>
</defs>
</svg>
