<svg width="50" height="50" viewBox="0 0 50 50" fill="none" xmlns="http://www.w3.org/2000/svg">
<g clip-path="url(#clip0_285_104)">
<path fill-rule="evenodd" clip-rule="evenodd" d="M45.2949 6.46732H45.9908V45.9848H45.2949V6.46732ZM46.6808 47.3707H44.6049C44.1758 47.3011 43.9033 47.1213 43.9033 46.6748V6.46152H40.4357V16.9454C41.868 17.2817 42.5174 18.424 42.5174 19.8911C42.5174 21.0392 41.3055 22.4019 39.9196 22.4019C36.2143 22.4019 36.0752 17.6354 39.0556 16.9396V6.45572H34.2022V16.9396C35.6345 17.2759 36.2839 18.4182 36.2839 19.8853C36.2839 21.0334 35.0778 22.3961 33.6861 22.3961C29.9808 22.3961 29.8417 17.6296 32.8221 16.9338V6.44992H29.3546V44.5815C29.3546 45.0048 29.0473 45.1962 28.8153 45.4281C28.3862 45.8514 27.1105 47.3533 26.5828 47.3533C26.2639 47.3533 25.887 47.1155 25.887 46.8314V6.44413H23.1153V7.82999C23.6835 7.82999 24.5012 7.69662 24.5012 8.52582C24.5012 11.4541 24.6983 11.2976 23.1153 11.2976V46.6574C23.1153 47.0749 22.8428 47.3533 22.4195 47.3533H20.3436C19.4216 47.2663 19.6419 46.7792 19.6419 44.5815H7.85337C7.85337 46.0602 8.1317 47.3533 7.15754 47.3533H5.08164C4.65254 47.2837 4.38001 47.1039 4.38001 46.6574V11.2976C4.02049 11.2976 2.99414 11.4309 2.99414 10.7757V8.58961C3.05213 7.8126 3.32466 7.82999 4.38001 7.82999V3.67239C4.38001 3.2549 4.65254 2.97656 5.07584 2.97656H46.675C47.0925 2.97656 47.3708 3.2491 47.3708 3.67239V46.6574C47.3708 47.0749 47.0983 47.3533 46.675 47.3533L46.6808 47.3707ZM21.0278 11.315H21.7236V45.979H21.0278V11.315ZM5.77167 11.315H6.4675V45.979H5.77167V11.315ZM27.2671 44.941C27.2671 44.4946 27.1917 41.6532 27.3367 41.3691C27.4294 41.2009 27.8064 40.882 27.9571 40.7776C27.9571 41.5837 27.9571 42.3955 27.9571 43.2015C27.9571 43.5552 28.0209 44.0886 27.8875 44.3438C27.8006 44.5119 27.4178 44.8309 27.2671 44.9352V44.941ZM7.85337 42.5172H19.6419V43.2131H7.85337V42.5172ZM7.85337 36.2779H19.6419V41.1314H7.85337V36.2779ZM27.2671 39.3976C27.2671 38.8235 27.2497 38.2263 27.2613 37.658C27.2671 37.2231 27.2613 37.2695 27.499 37.0317C27.6672 36.8636 27.7832 36.7476 27.9629 36.6258C27.9629 38.464 28.247 38.7423 27.2671 39.3976ZM7.85337 34.1962H19.6419V34.8921H7.85337V34.1962ZM27.2671 35.2342C27.2671 34.6601 27.2497 34.0629 27.2613 33.4946C27.2729 33.0365 27.4178 32.8278 27.9629 32.4625C27.9629 34.3006 28.247 34.5789 27.2671 35.2342ZM7.85337 27.9569H19.6419V32.8104H7.85337V27.9569ZM27.2671 31.0766C27.2671 29.2384 26.983 28.9601 27.9629 28.3049C27.9629 30.143 28.247 30.4213 27.2671 31.0766ZM7.85337 25.8752H19.6419V26.5711H7.85337V25.8752ZM27.2671 26.9132C27.2671 25.8115 27.0815 24.9649 27.499 24.5474C27.6672 24.3792 27.7832 24.2632 27.9629 24.1415C27.9629 24.7155 27.9803 25.3128 27.9687 25.881C27.9571 26.3391 27.8122 26.5479 27.2671 26.9132ZM7.85337 19.6359H19.6419V24.4894H7.85337V19.6359ZM27.2671 22.7556C27.2671 20.9174 26.983 20.6391 27.9629 19.9839C27.9629 21.822 28.247 22.1004 27.2671 22.7556ZM39.7457 21.0218C39.0151 21.0218 38.3598 20.2506 38.3598 19.7229C38.3598 18.5168 39.7573 17.8152 40.6619 18.6328C41.6186 19.491 40.888 21.0218 39.7457 21.0218ZM33.5064 21.0218C32.7758 21.0218 32.1205 20.2506 32.1205 19.7229C32.1205 17.4731 35.5301 18.1399 34.7705 20.1172C34.5965 20.5811 34.0862 21.0218 33.5064 21.0218ZM7.85337 17.5542H19.6419V18.2501H7.85337V17.5542ZM27.2671 18.5922C27.2671 16.754 26.983 16.4757 27.9629 15.8205C27.9629 17.6586 28.247 17.937 27.2671 18.5922ZM7.85337 11.315H19.6419V16.1684H7.85337V11.315ZM27.2671 14.4346C27.2671 12.5964 26.983 12.3181 27.9629 11.6629C27.9629 13.501 28.247 13.7794 27.2671 14.4346ZM4.38581 9.23325H23.1037V9.92909H4.38581V9.23325ZM27.2671 10.2712V6.45572H27.9629V9.48839C27.9629 9.73773 27.4468 10.1494 27.2671 10.2712ZM21.0278 6.45572H21.7236V7.84159H21.0278V6.45572ZM7.85337 6.45572H19.6419V7.84159H7.85337V6.45572ZM5.77167 6.45572H6.4675V7.84159H5.77167V6.45572ZM5.77167 4.37403H45.985V5.06986H5.77167V4.37403Z" fill="#E7C994"/>
</g>
<defs>
<clipPath id="clip0_285_104">
<rect width="44.3709" height="44.3709" fill="white" transform="translate(3 3)"/>
</clipPath>
</defs>
</svg>
