<svg width="50" height="50" viewBox="0 0 50 50" fill="none" xmlns="http://www.w3.org/2000/svg">
<g clip-path="url(#clip0_285_125)">
<path fill-rule="evenodd" clip-rule="evenodd" d="M34.2799 46.0903C34.2799 45.0855 35.2345 44.141 36.2293 44.141C37.2341 44.141 38.1786 45.0955 38.1786 46.0903C38.1786 47.0951 37.2241 48.0397 36.2293 48.0397C35.2245 48.0397 34.2799 47.0851 34.2799 46.0903ZM12.003 49.9991H11.6513C11.2192 49.9287 10.8474 49.5771 10.8474 49.1249C10.8474 48.4115 11.9528 45.4774 12.2542 44.573L13.681 40.2423C13.1786 40.2021 12.8069 39.8906 12.8069 39.3681C12.8069 38.3833 13.1887 38.2929 14.3543 38.2929L16.4142 31.9525C15.4897 31.4601 14.6959 31.0582 13.8318 30.4352C11.6212 28.8275 9.9833 27.1193 8.60669 24.8182C8.01384 23.8234 6.66738 21.2009 6.64729 20.1357C5.49174 20.1357 4.01465 20.407 4.01465 19.2615C4.01465 17.9653 4.96923 18.1864 6.16497 18.1864C6.15492 17.905 6.08458 17.4026 6.03434 17.0409C5.66256 14.1872 6.23531 14.2776 7.82293 14.2776H15.8314C15.7811 13.6747 15.7309 13.9963 15.7309 13.0115C15.7309 11.7555 17.1075 10.3789 18.3635 10.3789H30.6626C31.9186 10.3789 33.2952 11.7555 33.2952 13.0115C33.2952 13.9963 33.245 13.6848 33.1947 14.2776H41.3036C42.2381 14.2776 43.0621 14.2274 43.0621 15.1518C43.0621 16.7595 42.8812 17.3524 42.8712 18.1763C43.7152 18.1763 45.0215 17.9653 45.0215 19.0505C45.0215 20.407 43.9664 20.1257 42.3888 20.1257C42.3688 21.03 41.2434 23.311 40.8615 24.0646C40.2385 25.3005 39.505 26.1848 38.681 27.2499C37.0934 29.3098 34.8828 30.7467 32.622 31.9324L34.7723 38.2828C35.5862 38.2828 36.2393 38.3431 36.2393 39.157C36.2393 39.7398 36.1087 40.0815 35.4556 40.2322C35.5962 40.8251 35.9982 41.6088 36.0384 42.1816C37.4451 42.1816 38.1786 42.5031 38.8921 43.2266C39.9773 44.3118 40.138 44.8343 40.138 46.3817C40.138 48.1804 38.3294 49.9991 36.5207 49.9991H35.9379C34.1392 49.9991 32.3205 48.1904 32.3205 46.3817C32.3205 44.7539 32.843 43.4778 34.1794 42.7644L33.3052 40.2222H15.8213L12.8069 49.2254C12.636 49.6976 12.3245 49.9287 11.9929 49.989L12.003 49.9991ZM18.2731 32.7161C21.2474 34.143 27.7888 34.153 30.7731 32.7161L32.1497 36.9062C32.3004 37.3584 32.5114 37.7804 32.622 38.2828H16.5146C16.5548 37.7402 17.1879 36.1024 17.3788 35.5397C17.5798 34.9267 18.2228 33.2688 18.2731 32.7161ZM8.02389 16.2169H41.0323C41.0323 19.4123 39.6055 22.6277 37.8671 25.0594C37.1738 26.024 35.8977 27.3403 34.9532 28.104C33.6569 29.1691 32.7727 29.6514 31.2052 30.405C28.8237 31.5505 25.3772 32.0529 22.7044 31.7113C19.097 31.2591 15.6605 29.7519 13.1384 27.2197C10.9479 25.0292 9.47084 22.8287 8.59664 19.7439C8.31529 18.729 8.03394 17.5433 8.03394 16.2069L8.02389 16.2169ZM17.6903 13.2828C17.6903 12.7704 18.1525 12.3082 18.8659 12.3082H30.1903C31.3056 12.3082 31.6975 13.3934 31.0042 13.9963C30.7932 14.1872 30.5621 14.2575 30.1903 14.2575H18.8659C18.1525 14.2575 17.6903 13.7953 17.6903 13.2828Z" fill="#E7C994"/>
<path fill-rule="evenodd" clip-rule="evenodd" d="M19.6292 19.0444C19.6292 20.8631 20.9957 22.0689 22.2618 22.0689H26.7534C29.0745 22.0689 30.5215 18.1602 28.3109 18.1602C26.8639 18.1602 28.0396 20.1095 26.261 20.1095H22.7441C20.835 20.1095 22.3422 18.1602 20.4933 18.1602C20.011 18.1602 19.6191 18.552 19.6191 19.0344L19.6292 19.0444Z" fill="#E7C994"/>
<path fill-rule="evenodd" clip-rule="evenodd" d="M23.5384 0.874196V7.51608C23.5384 8.69172 25.4877 8.69172 25.4877 7.51608V0.874196C25.4877 0.331592 25.0757 0.0401929 24.6236 0H24.3925C23.9503 0.0401929 23.5283 0.331592 23.5283 0.874196H23.5384Z" fill="#E7C994"/>
<path fill-rule="evenodd" clip-rule="evenodd" d="M18.6548 3.41298V7.51266C18.6548 8.6883 20.6041 8.6883 20.6041 7.51266V3.41298C20.6041 2.23734 18.6548 2.23734 18.6548 3.41298Z" fill="#E7C994"/>
<path fill-rule="evenodd" clip-rule="evenodd" d="M28.4116 3.41298V7.51266C28.4116 8.6883 30.361 8.6883 30.361 7.51266V3.41298C30.361 2.23734 28.4116 2.23734 28.4116 3.41298Z" fill="#E7C994"/>
</g>
<defs>
<clipPath id="clip0_285_125">
<rect width="41.0157" height="50" fill="white" transform="translate(4)"/>
</clipPath>
</defs>
</svg>
