<svg width="50" height="50" viewBox="0 0 50 50" fill="none" xmlns="http://www.w3.org/2000/svg">
<g clip-path="url(#clip0_285_126)">
<path fill-rule="evenodd" clip-rule="evenodd" d="M31.8377 24.734H34.4461V44.9559H31.8377V24.734ZM10.8094 42.3475H17.55C17.5611 42.9315 18.0394 44.333 18.0895 44.9559H10.2699C10.3199 44.333 10.7982 42.9371 10.8094 42.3475ZM12.3388 35.5179H16.0205L16.9215 39.5612H11.4378L12.3388 35.5179ZM42.6271 21.9477H23.5732C20.3975 21.9477 19.5911 16.5529 24.2906 16.5529H25.0081V14.1281C25.0081 12.3873 26.1426 11.1638 27.8834 11.1638H29.0513C29.0513 9.24501 29.068 8.48863 30.0357 7.20947C31.6597 5.05714 35.4193 5.33522 36.7207 7.98809C37.2602 9.09484 37.1379 9.90127 37.1379 11.1638C38.3169 11.1638 39.4459 11.0247 40.308 11.8589C41.5259 13.038 41.1811 14.256 41.1811 16.5585C42.3268 16.5585 43.3446 16.4862 44.2011 17.1313C44.7628 17.5596 45.1354 18.099 45.2466 18.9722C45.4413 20.5183 44.2456 21.9532 42.6216 21.9532L42.6271 21.9477ZM22.3163 14.0391C21.6822 14.0891 21.0093 14.5063 20.5699 14.8121C16.1429 17.8877 18.3953 24.734 23.7511 24.734H29.0513V44.9559H20.8758C20.8758 44.5277 20.7368 44.0772 20.6422 43.6601C20.5366 43.1873 20.4364 42.7813 20.3363 42.3475H26.3595V39.5612H19.7079L18.8069 35.5179H23.6622V33.0041C23.6622 32.7983 23.601 32.7316 23.3952 32.7316H4.96969C4.76391 32.7316 4.70274 32.7927 4.70274 33.0041V35.5179H9.558L8.65702 39.5612H2.00537V42.3475H8.02856C7.90621 42.8759 7.48909 44.4943 7.48909 44.9559H2.00537V47.7423H48.0219V44.9559H37.238V24.734H42.3602C45.5247 24.734 48.0219 22.3036 48.0219 19.6118C48.0219 17.8655 47.7827 17.0535 46.7427 15.7687C46.1365 15.0179 44.874 14.1169 43.9786 14.0391C43.9786 13.1492 43.8618 12.3817 43.5615 11.7588C43.111 10.8078 43.1388 10.919 42.5048 10.1182C42.2378 9.77892 41.3813 9.17827 40.9531 8.97249C40.675 8.83345 40.1522 8.72222 39.9687 8.60542C39.4848 8.3051 39.8074 6.41972 37.2491 4.40643C33.5951 1.53666 28.1837 3.28299 26.7544 7.50979C26.265 8.96136 26.7544 8.33847 25.4641 8.91687C24.2684 9.45078 23.2506 10.4574 22.7389 11.6754C22.3941 12.4985 22.3163 12.9101 22.3163 14.0391Z" fill="#E7C994"/>
<path fill-rule="evenodd" clip-rule="evenodd" d="M8.74063 5.77629C10.4091 5.77629 11.7661 6.76625 12.3668 7.9898C14.3467 12.0386 9.20224 15.8817 5.93204 12.6282C3.3459 10.0587 5.23128 5.77629 8.74063 5.77629ZM2 9.46362C2 11.6159 2.5506 13.2121 3.95211 14.6136C5.01994 15.6815 6.79408 16.5658 8.37913 16.5658C10.7372 16.5658 11.9997 16.1208 13.6571 14.4746C16.1042 12.0497 16.1931 8.22338 13.9796 5.48153C13.8184 5.28131 13.7461 5.16451 13.5736 4.99211C9.20224 0.620705 2 4.11894 2 9.46918V9.46362Z" fill="#E7C994"/>
</g>
<defs>
<clipPath id="clip0_285_126">
<rect width="46.0165" height="44.7451" fill="white" transform="translate(2 3)"/>
</clipPath>
</defs>
</svg>
