<svg width="293" height="665" viewBox="0 0 293 665" fill="none" xmlns="http://www.w3.org/2000/svg">
<g opacity="0.05">
<path d="M25.8679 470.619L104.616 149.04L178.671 470.619H25.8679ZM168.661 132.945H97.6561L-32 664.763H-21.2083L23.6002 480.571H181.096L223.558 664.763H293L168.661 132.945Z" fill="#E8C994"/>
<path d="M185.596 85.4573C183.386 86.4746 181.038 87.4919 179.105 89.1027C170.405 96.2241 165.019 106.652 160.047 118.182C162.464 118.097 164.535 118.182 166.538 117.758C167.435 117.588 168.471 116.741 169.023 115.893C171.233 112.247 173.097 108.263 175.514 104.702C178.345 100.463 178.483 100.633 182.627 102.498C183.593 102.922 184.56 103.43 185.527 103.854C216.668 117.419 242.079 98.6827 254.301 72.6556C263.208 53.6651 264.935 32.7247 262.38 11.1909C261.965 7.46061 261.206 3.81505 260.584 0C259.687 0.423894 259.134 0.593587 258.651 0.932702C250.572 5.34121 242.079 8.05416 233.172 8.64761C221.64 9.32584 210.384 11.954 199.544 17.1255C177.516 27.6381 165.018 50.613 165.916 79.5227C166.054 83.6768 166.745 87.831 167.228 92.7481C172.821 86.7288 178.483 82.9986 184.698 80.2856C196.851 74.9446 208.382 67.8233 218.602 58.1585C225.023 52.1392 230.962 45.4417 237.107 38.9137C223.297 60.1085 206.518 76.2164 185.596 85.4573Z" fill="#E8C994"/>
</g>
</svg>
